<?xml version="1.0" encoding="UTF-8"?>
<svg id="Layer_1" xmlns="http://www.w3.org/2000/svg" version="1.1" viewBox="0 0 3000 987.6">
  <!-- Generator: Adobe Illustrator 29.8.5, SVG Export Plug-In . SVG Version: 2.1.1 Build 2)  -->
  <defs>
    <style>
      .st0 {
        fill: #fff;
      }

      .st1 {
        fill: #e12991;
      }
    </style>
  </defs>
  <path class="st1" d="M1137.09,103.9v773.45h-51.44v-361.39H132.05v361.38h-51.43V103.9h51.44v361.2h953.6V103.9h51.43ZM1034.32,103.9h-51.44v258.19H234.94V103.9h-51.44v309.05h850.82V103.9h0ZM338.03,103.9h-50.87v205.84h50.87V103.9ZM931.08,103.9h-51.44v205.84h51.44V103.9ZM183.5,877.34h51.44v-258.18h747.94v258.19h51.44v-309.63H183.5v309.62ZM879.22,877.34h51.44v-206.41h-51.44v206.41ZM286.75,877.34h51.44v-206.41h-51.44v206.41Z"/>
  <g>
    <path class="st0" d="M1422.94,103.88v227.42h-44.51v-94.22h-92.2v94.22h-44.83V103.88h44.83v90.32h92.2v-90.32h44.51Z"/>
    <path class="st0" d="M1605.81,168.85v162.45h-41.91v-18.19c-9.75,14.62-26.64,22.74-48.41,22.74-34.44,0-61.4-24.04-61.4-67.25v-99.74h41.91v94.54c0,22.1,13.32,33.47,32.16,33.47,20.47,0,35.74-12.02,35.74-40.29v-87.72h41.91Z"/>
    <path class="st0" d="M1885.19,231.23v100.07h-41.91v-97.14c0-19.17-9.75-30.86-27.29-30.86-18.52,0-30.22,12.35-30.22,36.71v91.29h-41.91v-97.14c0-19.17-9.75-30.86-27.29-30.86s-30.54,12.35-30.54,36.71v91.29h-41.91v-162.45h41.91v17.22c9.1-13.64,24.37-21.77,45.16-21.77s35.09,8.45,44.18,23.39c10.07-14.62,26.32-23.39,48.41-23.39,37.04,0,61.41,26.32,61.41,66.93Z"/>
    <path class="st0" d="M2086.24,168.85v162.45h-41.91v-19.17c-11.7,14.62-29.24,23.72-52.96,23.72-43.21,0-78.95-37.36-78.95-85.77s35.74-85.77,78.95-85.77c23.72,0,41.26,9.1,52.96,23.72v-19.17h41.91ZM2044.33,250.08c0-27.29-19.17-45.81-45.16-45.81s-44.83,18.52-44.83,45.81,19.17,45.81,44.83,45.81,45.16-18.52,45.16-45.81Z"/>
    <path class="st0" d="M2275.93,231.56v99.74h-41.91v-94.54c0-22.09-13.32-33.46-32.16-33.46-20.47,0-35.74,12.02-35.74,40.29v87.72h-41.91v-162.46h41.91v18.19c9.75-14.62,26.64-22.74,48.41-22.74,34.44,0,61.4,24.05,61.4,67.26Z"/>
    <path class="st0" d="M1316.47,525.36h-30.25v78.95h-44.83v-227.42h94.84c41.91,0,75.7,33.79,75.7,75.37,0,28.59-17.87,54.26-43.86,66.28l50.36,85.77h-48.41l-53.55-78.95ZM1286.22,486.05h50c16.89,0,30.86-14.95,30.86-33.79s-13.97-33.46-30.86-33.46h-50v67.25Z"/>
    <path class="st0" d="M1437.88,396.71c0-13.97,15.57-25.99,29.54-25.99s22.12,12.02,22.12,25.99-11.7,25.67-25.99,25.67-25.67-11.7-25.67-25.67ZM1442.76,441.87h41.91v162.45h-41.91v-162.45Z"/>
    <path class="st0" d="M1681.86,441.87v154.65c0,53.28-41.91,77.33-84.8,77.33-34.77,0-62.7-13.32-77-39.64l35.74-20.47c6.82,12.67,17.54,22.74,42.56,22.74,26.31,0,42.56-14.29,42.56-39.96v-17.54c-11.37,15.27-28.92,24.69-51.98,24.69-46.14,0-80.9-37.36-80.9-83.17s34.76-83.17,80.9-83.17c23.07,0,40.61,9.42,51.98,24.69v-20.14h40.94ZM1640.92,520.49c0-25.67-19.17-44.18-45.49-44.18s-45.48,18.52-45.48,44.18,19.17,44.51,45.48,44.51,45.49-18.52,45.49-44.51Z"/>
    <path class="st0" d="M1871.55,504.57v99.74h-41.91v-94.54c0-22.09-13.32-33.46-32.16-33.46-20.47,0-35.74,12.02-35.74,40.29v87.72h-41.91v-227.43h41.91v83.17c9.75-14.62,26.64-22.74,48.41-22.74,34.44,0,61.4,24.04,61.4,67.25Z"/>
    <path class="st0" d="M1963.46,482.15v67.58c0,17.54,12.67,17.87,36.71,16.57v38.01c-58.81,6.5-78.62-10.72-78.62-54.58v-67.58h-28.27v-40.29h28.27v-32.81l41.91-12.67v45.48h36.71v40.29h-36.71Z"/>
    <path class="st0" d="M2148.63,556.88c0,35.09-30.54,51.98-65.31,51.98-32.49,0-56.53-13.64-68.22-38.66l36.39-20.47c4.55,13.32,15.6,21.12,31.84,21.12,13.32,0,22.42-4.55,22.42-13.97,0-23.72-83.82-10.72-83.82-67.9,0-33.14,28.27-51.66,61.73-51.66,26.32,0,49.06,12.02,61.73,34.44l-35.74,19.49c-4.88-10.4-13.97-16.57-25.99-16.57-10.4,0-18.84,4.55-18.84,13.32,0,24.04,83.81,9.1,83.81,68.88Z"/>
    <path class="st0" d="M1286.22,692.79v53.93h96.11v42.89h-96.11v87.72h-44.83v-227.43h143.54v42.88h-98.71Z"/>
    <path class="st0" d="M1400.82,796.1c0-48.41,38.01-85.77,85.77-85.77s86.1,37.36,86.1,85.77-38.34,85.77-86.1,85.77-85.77-37.36-85.77-85.77ZM1530.78,796.1c0-26.31-19.17-44.83-44.19-44.83s-43.86,18.52-43.86,44.83,19.17,44.83,43.86,44.83c25.02.01,44.19-18.51,44.19-44.83Z"/>
    <path class="st0" d="M1744.84,714.88v162.45h-41.91v-18.19c-9.75,14.62-26.64,22.74-48.41,22.74-34.44,0-61.4-24.04-61.4-67.25v-99.74h41.91v94.54c0,22.1,13.32,33.47,32.16,33.47,20.47,0,35.74-12.02,35.74-40.29v-87.72h41.91Z"/>
    <path class="st0" d="M1934.86,777.58v99.74h-41.91v-94.54c0-22.09-13.32-33.46-32.16-33.46-20.47,0-35.74,12.02-35.74,40.29v87.72h-41.91v-162.45h41.91v18.19c9.75-14.62,26.64-22.74,48.41-22.74,34.44,0,61.4,24.04,61.4,67.25Z"/>
    <path class="st0" d="M2135.61,649.9v227.42h-41.91v-19.17c-11.7,14.95-28.92,23.72-52.63,23.72-43.54,0-79.27-37.36-79.27-85.77s35.74-85.77,79.27-85.77c23.72,0,40.94,8.77,52.63,23.72v-84.15h41.91ZM2093.7,796.1c0-27.29-19.17-45.81-44.84-45.81s-45.16,18.52-45.16,45.81,19.17,45.81,45.16,45.81c25.67.01,44.84-18.51,44.84-45.81Z"/>
    <path class="st0" d="M2337.35,714.88v162.45h-41.91v-19.17c-11.7,14.62-29.24,23.72-52.96,23.72-43.21,0-78.95-37.36-78.95-85.77s35.74-85.77,78.95-85.77c23.72,0,41.26,9.1,52.96,23.72v-19.17h41.91ZM2295.44,796.1c0-27.29-19.17-45.81-45.16-45.81s-44.83,18.52-44.83,45.81,19.17,45.81,44.83,45.81c25.99.01,45.16-18.51,45.16-45.81Z"/>
    <path class="st0" d="M2433.46,755.17v67.58c0,17.54,12.67,17.87,36.71,16.57v38.01c-58.81,6.5-78.62-10.72-78.62-54.58v-67.58h-28.26v-40.29h28.26v-32.81l41.91-12.67v45.48h36.71v40.29h-36.71Z"/>
    <path class="st0" d="M2494.84,669.72c0-13.97,11.7-25.99,25.67-25.99s25.99,12.02,25.99,25.99-11.7,25.66-25.99,25.66c-13.97.01-25.67-11.69-25.67-25.66ZM2499.71,714.88h41.91v162.45h-41.91v-162.45Z"/>
    <path class="st0" d="M2565,796.1c0-48.41,38.01-85.77,85.77-85.77s86.1,37.36,86.1,85.77-38.34,85.77-86.1,85.77-85.77-37.36-85.77-85.77ZM2694.96,796.1c0-26.31-19.17-44.83-44.19-44.83s-43.86,18.52-43.86,44.83,19.17,44.83,43.86,44.83c25.02.01,44.19-18.51,44.19-44.83Z"/>
    <path class="st0" d="M2911.62,777.58v99.74h-41.91v-94.54c0-22.09-13.32-33.46-32.16-33.46-20.47,0-35.74,12.02-35.74,40.29v87.72h-41.91v-162.45h41.91v18.19c9.75-14.62,26.64-22.74,48.41-22.74,34.44,0,61.4,24.04,61.4,67.25Z"/>
  </g>
</svg>