<svg xmlns="http://www.w3.org/2000/svg" xmlns:xlink="http://www.w3.org/1999/xlink" viewBox="0 0 135 61"><path d="M 14.958 15.796 C 14.958 13.48 13.08 11.602 10.764 11.602 C 8.448 11.602 6.57 13.48 6.57 15.796 C 6.57 18.112 8.448 19.99 10.764 19.99 C 13.08 19.99 14.958 18.112 14.958 15.796 Z" fill="rgb(0,0,0)"></path><path d="M 10.065 15.168 L 17.894 22.996" fill="transparent" stroke-width="2.097" stroke="rgb(0,0,0)" stroke-miterlimit="10" stroke-dasharray=""></path><path d="M 40.821 15.796 C 40.821 13.48 42.699 11.602 45.015 11.602 C 47.331 11.602 49.209 13.48 49.209 15.796 C 49.209 18.112 47.331 19.99 45.015 19.99 C 42.699 19.99 40.821 18.112 40.821 15.796 Z" fill="rgb(0,0,0)"></path><path d="M 45.784 15.168 L 37.955 22.996" fill="transparent" stroke-width="2.097" stroke="rgb(0,0,0)" stroke-miterlimit="10" stroke-dasharray=""></path><path d="M 11.955 40.823 C 9.695 39.747 8.379 37.331 8.82 34.866 C 10.711 24.289 18.593 16.356 28.03 16.356 C 37.489 16.356 45.386 24.327 47.253 34.943 C 47.687 37.412 46.361 39.827 44.093 40.895 C 39.09 43.247 33.628 44.463 28.099 44.455 C 22.514 44.463 16.998 43.222 11.955 40.823 Z" fill="rgb(255,222,110)"></path><path d="M 9.852 35.05 C 11.679 24.83 19.234 17.404 28.029 17.404 L 28.029 15.307 C 17.953 15.307 9.743 23.747 7.788 34.682 L 9.852 35.051 Z M 28.029 17.404 C 36.846 17.404 44.416 24.867 46.22 35.124 L 48.285 34.761 C 46.355 23.788 38.131 15.307 28.029 15.307 Z M 43.646 39.946 C 38.783 42.233 33.473 43.414 28.099 43.406 L 28.099 45.504 C 33.976 45.504 39.549 44.191 44.539 41.844 Z M 28.1 43.406 C 22.671 43.414 17.309 42.208 12.407 39.876 L 11.505 41.77 C 16.689 44.236 22.359 45.512 28.1 45.504 L 28.1 43.407 Z M 46.221 35.125 C 46.569 37.104 45.509 39.069 43.647 39.945 L 44.54 41.843 C 47.214 40.585 48.807 37.72 48.286 34.761 Z M 7.788 34.68 C 7.26 37.634 8.839 40.5 11.504 41.769 L 12.406 39.875 C 10.55 38.992 9.499 37.025 9.852 35.05 Z" fill="rgb(0,0,0)"></path><path d="M 15.988 38.193 C 14.168 37.453 13.089 35.517 13.72 33.656 C 15.664 27.918 21.336 23.766 28.03 23.766 C 34.723 23.766 40.395 27.918 42.34 33.656 C 42.97 35.516 41.89 37.452 40.071 38.193 C 36.247 39.748 32.158 40.546 28.03 40.541 C 23.77 40.541 19.704 39.707 15.988 38.193 Z" fill="rgb(0,0,0)"></path><path d="M 29.357 32.712 C 29.357 31.168 30.922 29.916 32.852 29.916 C 34.782 29.916 36.347 31.168 36.347 32.712 C 36.347 34.256 34.782 35.508 32.852 35.508 C 30.922 35.508 29.357 34.256 29.357 32.712 Z" fill="rgb(248,196,85)"></path><path d="M 29.357 32.712 C 29.357 31.168 30.922 29.916 32.852 29.916 C 34.782 29.916 36.347 31.168 36.347 32.712 C 36.347 34.256 34.782 35.508 32.852 35.508 C 30.922 35.508 29.357 34.256 29.357 32.712 Z" fill="rgba(255,255,255,0.97)"></path><path d="M 19.353 32.714 C 19.353 31.17 20.918 29.918 22.848 29.918 C 24.778 29.918 26.343 31.17 26.343 32.714 C 26.343 34.258 24.778 35.51 22.848 35.51 C 20.918 35.51 19.353 34.258 19.353 32.714 Z" fill="rgb(248,196,85)"></path><path d="M 19.353 32.714 C 19.353 31.17 20.918 29.918 22.848 29.918 C 24.778 29.918 26.343 31.17 26.343 32.714 C 26.343 34.258 24.778 35.51 22.848 35.51 C 20.918 35.51 19.353 34.258 19.353 32.714 Z" fill="rgba(255,255,255,0.97)"></path><path d="M 72.715 30.751 L 70.2 23.906 L 67.795 30.751 L 72.716 30.751 Z M 66.943 15.84 L 73.677 15.84 L 83.075 40.704 L 76.452 41.37 L 74.639 36.042 L 65.944 36.042 L 64.205 41 L 57.508 41 Z M 91.657 41 L 84.923 41 L 84.923 15.285 L 91.657 14.878 Z M 98.752 41 L 95.348 41 L 95.348 15.285 L 102.082 14.878 L 102.082 37.633 Z M 99.899 30.048 L 98.012 25.719 C 98.456 25.176 99.023 24.659 99.714 24.165 C 100.442 23.64 101.239 23.217 102.082 22.907 C 102.934 22.588 103.836 22.425 104.746 22.426 C 106.522 22.426 108.1 22.759 109.482 23.425 C 110.863 24.091 111.948 25.115 112.738 26.496 C 113.552 27.877 113.959 29.641 113.959 31.787 C 113.959 33.908 113.552 35.684 112.738 37.115 C 111.948 38.545 110.838 39.619 109.408 40.334 C 108.002 41.049 106.349 41.407 104.45 41.407 C 103.71 41.407 102.97 41.296 102.23 41.074 C 101.47 40.831 100.747 40.482 100.084 40.038 C 99.394 39.545 98.702 38.903 98.012 38.114 L 99.899 34.155 C 100.614 34.821 101.317 35.339 102.008 35.709 C 102.698 36.054 103.364 36.227 104.006 36.227 C 104.573 36.227 105.079 36.054 105.523 35.709 C 105.967 35.364 106.324 34.858 106.596 34.192 C 106.867 33.526 107.003 32.737 107.003 31.824 C 107.003 30.911 106.867 30.147 106.596 29.53 C 106.349 28.889 105.979 28.408 105.486 28.087 C 105.017 27.767 104.425 27.606 103.71 27.606 C 103.118 27.606 102.513 27.828 101.897 28.272 C 101.28 28.716 100.614 29.308 99.899 30.048 Z M 120.619 41.074 L 120.767 40.667 L 114.329 24.165 L 120.545 22.389 L 124.208 33.193 L 127.649 23.055 L 134.346 23.055 L 126.465 43.109 C 126.095 44.071 125.491 44.959 124.652 45.773 C 123.787 46.606 122.801 47.304 121.729 47.845 C 120.619 48.412 119.472 48.832 118.288 49.103 L 116.031 43.886 C 116.653 43.626 117.27 43.355 117.881 43.072 C 118.499 42.802 119.093 42.48 119.657 42.11 C 120.175 41.765 120.496 41.42 120.619 41.074 Z" fill="rgb(0,0,0)"></path></svg>
