<svg width="1260" height="170" viewBox="0 0 1260 170" fill="none" xmlns="http://www.w3.org/2000/svg">
<path fill-rule="evenodd" clip-rule="evenodd" d="M78.2918 13.4164C82.403 5.19395 90.807 0 100 0C109.193 0 117.597 5.19394 121.708 13.4164L200 170H155L145.435 150H70L127.198 111.868L100 55L45 170H0L78.2918 13.4164ZM390 170V0H350V110L279.412 18.6505C274.124 11.8071 271.48 8.38544 268.161 5.91986C265.222 3.73588 261.908 2.10845 258.383 1.11808C254.403 0 250.079 0 241.43 0H220V170H260V60L330.588 151.349C335.876 158.193 338.52 161.615 341.839 164.08C344.778 166.264 348.092 167.892 351.617 168.882C355.597 170 359.921 170 368.57 170H390ZM820 0H920C954.794 0 985 30 985 65C985 90.1062 971.314 109.916 950.064 120.04L985 170H939.967L885 90.1333H924.998C938.842 90.1333 950.064 78.9106 950.064 65.0667C950.064 51.2227 938.842 40 924.998 40H860V170H820V0ZM420 0H512C555.078 0 590 35.0551 590 78.1333V92.1333C590 135.212 555.078 170 512 170H420V0ZM460 130.133H512C535.196 130.133 550 115.329 550 92.1333V78.1333C550 54.9373 535.196 40.1333 512 40.1333H460V130.133ZM1078 0C1034.92 0 1000 34.9218 1000 78V92C1000 135.078 1034.92 170 1078 170H1122C1165.08 170 1200 135.078 1200 92V78C1200 34.9218 1165.08 0 1122 0H1078ZM1036 78C1036 54.804 1054.8 36 1078 36H1122C1145.2 36 1164 54.804 1164 78V92C1164 115.196 1145.2 134 1122 134H1078C1054.8 134 1036 115.196 1036 92V78ZM650 0H610V92C610 135.078 644.788 170 687.867 170H711.867C754.945 170 790 135.078 790 92V0H750V90C750 113.196 738.196 130 715 130H685C661.804 130 650 113.196 650 90V0ZM1190 2.62132H1218.27V8.97708H1207.33V30H1200.94V8.97708H1190V2.62132ZM1228.31 13.0651V30H1221.92V2.62132H1229.28L1241.06 21.5827L1252.84 2.62132H1260V30H1253.62V13.3871L1243.43 30H1238.69L1228.31 13.0651Z" fill="#010109"/>
</svg>
