<svg width="auto" height="auto" viewBox="0 0 209 45" fill="none" xmlns="http://www.w3.org/2000/svg">
<g clip-path="url(#clip0_666_208)">
<path d="M49.8486 19.4707V1.45224H56.3737C58.7319 1.45224 60.4793 1.85577 61.6218 2.66575C62.7644 3.47574 63.3342 4.64831 63.3342 6.1864C63.3342 7.07534 63.1063 7.85023 62.6504 8.51108C62.1946 9.17194 61.3793 9.74799 60.2104 10.2363C60.9643 10.4264 61.5751 10.6837 62.0397 11.0083C62.5043 11.3329 62.8608 11.6925 63.1121 12.0873C63.3605 12.482 63.53 12.8944 63.6235 13.3213C63.7141 13.7482 63.7608 14.1722 63.7608 14.5874C63.7608 16.2483 63.1968 17.4794 62.066 18.2747C60.9381 19.073 59.141 19.4707 56.6747 19.4707H49.8516H49.8486ZM53.4721 8.90292H56.9464C57.3205 8.90292 57.6799 8.85905 58.0247 8.77133C58.3695 8.68361 58.6763 8.5491 58.9452 8.3678C59.214 8.18651 59.4273 7.94965 59.5851 7.66309C59.7429 7.37652 59.8218 7.03732 59.8218 6.64841C59.8218 5.86767 59.5296 5.277 58.9452 4.87347C58.3608 4.46994 57.6098 4.26817 56.6981 4.26817H53.4721V8.90292ZM53.4721 16.6548H56.7477C57.8348 16.6548 58.6617 16.4355 59.2257 15.9939C59.7897 15.5524 60.0731 14.9646 60.0731 14.2248C60.0731 13.6926 59.9358 13.2482 59.6611 12.8856C59.3864 12.523 59.0153 12.251 58.5478 12.0697C58.0773 11.8885 57.5455 11.7949 56.9464 11.7949H53.4721V16.6548Z" fill="currentColor"></path>
<path d="M65.9377 19.4707V6.58408H69.4121V19.4678H65.9377V19.4707ZM65.9874 4.41731V1.45224H69.4618V4.41731H65.9874Z" fill="currentColor"></path>
<path d="M77.5799 19.6052C76.4432 19.6052 75.5637 19.459 74.9471 19.1695C74.3276 18.8801 73.901 18.4707 73.6643 17.9473C73.4276 17.4238 73.3107 16.8185 73.3107 16.1284V9.11347H71.2185V6.5841H73.4218L74.3422 2.69501H76.9312V6.56948H79.7949V9.11054H76.9312L76.9546 15.9764C76.9546 16.2922 76.9926 16.5261 77.0744 16.6811C77.1533 16.8361 77.279 16.9355 77.4485 16.9794C77.6179 17.0262 77.8371 17.0466 78.103 17.0466H79.8329V19.2894C79.6576 19.3655 79.3975 19.4356 79.0468 19.5C78.6991 19.5672 78.2082 19.5994 77.577 19.5994L77.5799 19.6052Z" fill="currentColor"></path>
<path d="M87.082 19.7192C85.8869 19.7192 84.8203 19.4531 83.8823 18.9209C82.9443 18.3887 82.208 17.6284 81.6732 16.6342C81.1385 15.6429 80.8696 14.4557 80.8696 13.0756C80.8696 11.6954 81.1268 10.5754 81.6411 9.56076C82.1554 8.54608 82.88 7.75657 83.8151 7.18636C84.7502 6.61616 85.8372 6.33252 87.085 6.33252C88.1632 6.33252 89.0954 6.55183 89.8814 6.99337C90.6675 7.43492 91.284 8.02851 91.737 8.77417C92.1899 9.51982 92.45 10.3561 92.5143 11.2801H89.4869C89.4285 10.938 89.3087 10.6017 89.1246 10.2655C88.9434 9.9292 88.6834 9.6514 88.3532 9.42917C88.02 9.20986 87.6051 9.09874 87.1083 9.09874C86.2609 9.09874 85.5742 9.42625 85.0482 10.0783C84.5223 10.7304 84.2564 11.7217 84.2564 13.0492C84.2564 14.3037 84.5135 15.2979 85.0278 16.0348C85.5421 16.7687 86.2609 17.1372 87.1814 17.1372C87.6723 17.1372 88.0814 17.0173 88.4087 16.7746C88.736 16.5348 88.9931 16.2453 89.1743 15.909C89.3554 15.5728 89.4723 15.2599 89.522 14.9675H92.4733C92.4149 15.8564 92.1578 16.6605 91.7019 17.3799C91.2461 18.0992 90.6236 18.6665 89.8405 19.0876C89.0574 19.5057 88.1369 19.7163 87.082 19.7163V19.7192Z" fill="currentColor"></path>
<path d="M100.182 19.7192C98.9197 19.7192 97.821 19.4502 96.8889 18.9092C95.9538 18.3682 95.232 17.605 94.7207 16.6167C94.2093 15.6283 93.9551 14.4557 93.9551 13.1019C93.9551 11.748 94.2093 10.5637 94.7207 9.54906C95.232 8.53439 95.9538 7.7478 96.8889 7.18052C97.824 6.61616 98.9256 6.33252 100.194 6.33252C101.462 6.33252 102.564 6.61031 103.493 7.16882C104.422 7.7244 105.141 8.50807 105.646 9.5169C106.152 10.5257 106.406 11.7217 106.406 13.099C106.406 14.3943 106.158 15.5406 105.664 16.5319C105.17 17.5261 104.46 18.3039 103.534 18.8683C102.607 19.4326 101.488 19.7163 100.176 19.7163L100.182 19.7192ZM100.194 17.0144C100.834 17.0144 101.348 16.8272 101.737 16.4529C102.125 16.0786 102.409 15.5874 102.584 14.9762C102.759 14.3651 102.847 13.6984 102.847 12.9761C102.847 12.2948 102.768 11.6515 102.61 11.0433C102.453 10.438 102.178 9.94674 101.789 9.57245C101.398 9.19816 100.869 9.01102 100.194 9.01102C99.5188 9.01102 99.0366 9.18647 98.6421 9.54029C98.2477 9.89411 97.9584 10.3707 97.7772 10.9731C97.596 11.5755 97.5025 12.2422 97.5025 12.9732C97.5025 13.6458 97.5843 14.292 97.7509 14.9119C97.9175 15.5318 98.1951 16.0348 98.5866 16.4266C98.9753 16.8184 99.5129 17.0114 100.194 17.0114V17.0144Z" fill="currentColor"></path>
<path d="M108.399 19.4707V6.58408H111.874V19.4678H108.399V19.4707ZM108.449 4.41731V1.45224H111.923V4.41731H108.449Z" fill="currentColor"></path>
<path d="M114.565 19.4707V6.58408H118.139V8.40289C118.337 8.08708 118.597 7.78297 118.916 7.48763C119.234 7.1923 119.641 6.94959 120.132 6.75953C120.622 6.56946 121.204 6.47296 121.876 6.47296C122.665 6.47296 123.401 6.62794 124.085 6.93497C124.769 7.24201 125.324 7.72741 125.748 8.38534C126.172 9.04619 126.382 9.90881 126.382 10.9703V19.4678H122.747V11.4177C122.747 10.7188 122.536 10.1954 122.119 9.8474C121.701 9.49943 121.195 9.32399 120.605 9.32399C120.208 9.32399 119.822 9.39417 119.454 9.53452C119.085 9.67488 118.784 9.88834 118.551 10.1691C118.317 10.4527 118.203 10.8007 118.203 11.2159V19.4649H114.568L114.565 19.4707Z" fill="currentColor"></path>
<path d="M134.411 19.4707V1.45224H141.036C142.348 1.45224 143.523 1.6774 144.56 2.13064C145.597 2.58388 146.418 3.25058 147.02 4.13074C147.622 5.0109 147.923 6.08698 147.923 7.35898C147.923 8.55495 147.657 9.57839 147.125 10.4235C146.594 11.2685 145.849 11.9206 144.89 12.3739C143.932 12.8271 142.804 13.0523 141.509 13.0523H138.073V19.4707H134.411ZM138.035 10.2246H141.41C142.322 10.2246 143.07 9.93221 143.651 9.34738C144.233 8.76256 144.522 8.03738 144.522 7.17183C144.522 6.30629 144.215 5.56356 143.601 5.0343C142.988 4.50503 142.24 4.24186 141.36 4.24186H138.035V10.2246Z" fill="currentColor"></path>
<path d="M154.895 19.7192C153.633 19.7192 152.534 19.4502 151.602 18.9092C150.667 18.3682 149.945 17.605 149.434 16.6167C148.923 15.6283 148.668 14.4557 148.668 13.1019C148.668 11.748 148.923 10.5637 149.434 9.54906C149.945 8.53439 150.667 7.7478 151.602 7.18052C152.537 6.61616 153.639 6.33252 154.907 6.33252C156.175 6.33252 157.277 6.61031 158.206 7.16882C159.135 7.7244 159.854 8.50807 160.36 9.5169C160.865 10.5257 161.12 11.7217 161.12 13.099C161.12 14.3943 160.871 15.5406 160.377 16.5319C159.884 17.5261 159.173 18.3039 158.247 18.8683C157.321 19.4326 156.202 19.7163 154.89 19.7163L154.895 19.7192ZM154.91 17.0144C155.55 17.0144 156.064 16.8272 156.453 16.4529C156.842 16.0786 157.125 15.5874 157.3 14.9762C157.476 14.3651 157.563 13.6984 157.563 12.9761C157.563 12.2948 157.484 11.6515 157.327 11.0433C157.169 10.438 156.894 9.94674 156.506 9.57245C156.114 9.19816 155.585 9.01102 154.91 9.01102C154.235 9.01102 153.753 9.18647 153.358 9.54029C152.964 9.89411 152.675 10.3707 152.494 10.9731C152.312 11.5755 152.219 12.2422 152.219 12.9732C152.219 13.6458 152.301 14.292 152.467 14.9119C152.634 15.5318 152.911 16.0348 153.303 16.4266C153.692 16.8184 154.229 17.0114 154.91 17.0114V17.0144Z" fill="currentColor"></path>
<path d="M163.577 19.4708V0.952332H167.212V19.4708H163.577Z" fill="currentColor"></path>
<path d="M170.362 19.4707V6.58408H173.836V19.4678H170.362V19.4707ZM170.412 4.41731V1.45224H173.886V4.41731H170.412Z" fill="currentColor"></path>
<path d="M182.057 19.7192C180.862 19.7192 179.795 19.4531 178.857 18.9209C177.919 18.3887 177.183 17.6284 176.648 16.6342C176.113 15.6429 175.844 14.4557 175.844 13.0756C175.844 11.6954 176.101 10.5754 176.616 9.56076C177.13 8.54608 177.855 7.75657 178.79 7.18636C179.725 6.61616 180.812 6.33252 182.06 6.33252C183.138 6.33252 184.07 6.55183 184.856 6.99337C185.642 7.43492 186.259 8.02851 186.712 8.77417C187.165 9.51982 187.425 10.3561 187.489 11.2801H184.462C184.403 10.938 184.283 10.6017 184.099 10.2655C183.918 9.9292 183.658 9.6514 183.328 9.42917C182.995 9.20986 182.58 9.09874 182.083 9.09874C181.236 9.09874 180.549 9.42625 180.023 10.0783C179.497 10.7304 179.231 11.7217 179.231 13.0492C179.231 14.3037 179.488 15.2979 180.002 16.0348C180.517 16.7687 181.236 17.1372 182.156 17.1372C182.647 17.1372 183.056 17.0173 183.383 16.7746C183.711 16.5348 183.968 16.2453 184.149 15.909C184.33 15.5728 184.447 15.2599 184.497 14.9675H187.448C187.39 15.8564 187.132 16.6605 186.677 17.3799C186.221 18.0992 185.598 18.6665 184.815 19.0876C184.032 19.5057 183.112 19.7163 182.057 19.7163V19.7192Z" fill="currentColor"></path>
<path d="M191.247 23.5822C190.367 23.5822 189.561 23.436 188.83 23.1465V20.8277L190.113 20.8774C190.668 20.9095 191.118 20.8832 191.457 20.7955C191.796 20.7078 192.053 20.5937 192.229 20.4534C192.404 20.313 192.53 20.1639 192.609 20.0118C192.688 19.8568 192.743 19.737 192.778 19.6434L193.015 18.9328L188.009 6.58423H191.609L194.698 14.9823L197.81 6.58423H201.372L196.153 19.544C195.706 20.6405 195.23 21.4797 194.727 22.0616C194.225 22.6435 193.684 23.0412 193.108 23.2576C192.533 23.474 191.91 23.5822 191.247 23.5822Z" fill="currentColor"></path>
<path d="M49.8486 43.7995V25.7811H53.4721V43.7995H49.8486Z" fill="currentColor"></path>
<path d="M56.5491 43.7996V30.9159H60.1228V32.7347C60.3215 32.4189 60.5816 32.1148 60.9001 31.8195C61.2186 31.5241 61.6248 31.2814 62.1157 31.0914C62.6066 30.9013 63.1881 30.8048 63.8602 30.8048C64.6492 30.8048 65.3855 30.9598 66.0693 31.2668C66.7531 31.5739 67.3083 32.0593 67.732 32.7172C68.1557 33.378 68.3661 34.2407 68.3661 35.3021V43.7996H64.731V35.7495C64.731 35.0506 64.5206 34.5272 64.1027 34.1793C63.6849 33.8313 63.1793 33.6558 62.5891 33.6558C62.1917 33.6558 61.806 33.726 61.4378 33.8664C61.0696 34.0067 60.7686 34.2202 60.5348 34.5009C60.3011 34.7845 60.1871 35.1325 60.1871 35.5477V43.7967H56.552L56.5491 43.7996Z" fill="currentColor"></path>
<path d="M75.8761 44.0482C74.979 44.0482 74.117 43.902 73.293 43.6067C72.466 43.3113 71.7647 42.8464 71.1891 42.2119C70.6134 41.5773 70.2481 40.7527 70.0991 39.7381H73.2375C73.3544 40.1942 73.556 40.5568 73.8423 40.8229C74.1287 41.089 74.4531 41.2762 74.8213 41.3902C75.1865 41.5013 75.5342 41.5598 75.8674 41.5598C76.5658 41.5598 77.1239 41.4487 77.5476 41.2294C77.9713 41.0101 78.1817 40.6709 78.1817 40.2147C78.1817 39.8667 78.056 39.5889 77.8077 39.3813C77.5593 39.1737 77.1443 39.0158 76.5628 38.9076L74.2953 38.4339C73.1586 38.1941 72.2439 37.7847 71.5485 37.2058C70.853 36.6268 70.5053 35.808 70.4965 34.7437C70.4878 33.9717 70.6894 33.2787 71.1014 32.6617C71.5134 32.0447 72.1212 31.5622 72.9306 31.2025C73.7401 30.8458 74.7307 30.6674 75.8995 30.6674C77.4862 30.6674 78.7544 31.0154 79.7041 31.7143C80.6538 32.4131 81.1389 33.3956 81.1535 34.6676H78.1145C78.0239 34.1676 77.7755 33.7845 77.3723 33.5155C76.969 33.2465 76.4606 33.112 75.8469 33.112C75.2333 33.112 74.7102 33.2231 74.304 33.4483C73.8979 33.6734 73.6933 34.0126 73.6933 34.4688C73.6933 34.8109 73.8599 35.077 74.193 35.2729C74.5261 35.4688 75.0404 35.6355 75.7359 35.7788L77.8281 36.2525C78.5499 36.4279 79.1372 36.6648 79.5901 36.9689C80.0431 37.273 80.3937 37.6034 80.6421 37.9602C80.8905 38.3169 81.0629 38.6766 81.1593 39.0392C81.2557 39.4018 81.3025 39.7264 81.3025 40.0159C81.3025 40.8726 81.0746 41.6007 80.6187 42.2031C80.1629 42.8055 79.5259 43.2646 78.7135 43.5804C77.9012 43.8962 76.9544 44.0541 75.8732 44.0541L75.8761 44.0482Z" fill="currentColor"></path>
<path d="M88.8004 43.9371C87.6637 43.9371 86.7841 43.7909 86.1676 43.5014C85.5481 43.2119 85.1215 42.8025 84.8848 42.2791C84.6481 41.7557 84.5312 41.1504 84.5312 40.4603V33.4453H82.439V30.9159H84.6422L85.5627 27.0269H88.1517V30.9013H91.0154V33.4424H88.1517L88.1751 40.3082C88.1751 40.624 88.2131 40.858 88.2949 41.013C88.3738 41.1679 88.4994 41.2674 88.6689 41.3112C88.8384 41.358 89.0575 41.3785 89.3235 41.3785H91.0534V43.6213C90.878 43.6973 90.618 43.7675 90.2673 43.8318C89.9196 43.8991 89.4287 43.9312 88.7975 43.9312L88.8004 43.9371Z" fill="currentColor"></path>
<path d="M93.1223 43.7995V30.9158H96.5967V43.7995H93.1223ZM93.172 28.7461V25.7811H96.6464V28.7461H93.172Z" fill="currentColor"></path>
<path d="M104.764 43.9371C103.627 43.9371 102.748 43.7909 102.131 43.5014C101.511 43.2119 101.085 42.8025 100.848 42.2791C100.611 41.7557 100.495 41.1504 100.495 40.4603V33.4453H98.4023V30.9159H100.606L101.526 27.0269H104.115V30.9013H106.979V33.4424H104.115L104.138 40.3082C104.138 40.624 104.176 40.858 104.258 41.013C104.337 41.1679 104.463 41.2674 104.632 41.3112C104.802 41.358 105.021 41.3785 105.287 41.3785H107.017V43.6213C106.841 43.6973 106.581 43.7675 106.231 43.8318C105.883 43.8991 105.392 43.9312 104.761 43.9312L104.764 43.9371Z" fill="currentColor"></path>
<path d="M113.705 44.0481C113.106 44.0481 112.519 43.9574 111.943 43.7732C111.368 43.5919 110.842 43.32 110.368 42.9632C109.895 42.6065 109.515 42.1649 109.229 41.6415C108.942 41.1181 108.799 40.5157 108.799 39.8344V30.9129H112.434V39.3607C112.434 39.9601 112.63 40.4485 113.019 40.8315C113.407 41.2146 113.98 41.4047 114.737 41.4047C115.45 41.4047 116.017 41.2204 116.437 40.8491C116.858 40.4777 117.066 39.9631 117.066 39.2964V30.91H120.666V43.7937H117.925L117.501 41.238C117.352 41.9953 117.072 42.5743 116.66 42.9778C116.248 43.3814 115.78 43.6592 115.251 43.8112C114.725 43.9662 114.208 44.0422 113.699 44.0422L113.705 44.0481Z" fill="currentColor"></path>
<path d="M128.833 43.9371C127.696 43.9371 126.817 43.7909 126.2 43.5014C125.581 43.2119 125.154 42.8025 124.917 42.2791C124.681 41.7557 124.564 41.1504 124.564 40.4603V33.4453H122.472V30.9159H124.675L125.595 27.0269H128.184V30.9013H131.048V33.4424H128.184L128.208 40.3082C128.208 40.624 128.246 40.858 128.328 41.013C128.406 41.1679 128.532 41.2674 128.702 41.3112C128.871 41.358 129.09 41.3785 129.356 41.3785H131.086V43.6213C130.911 43.6973 130.651 43.7675 130.3 43.8318C129.952 43.8991 129.461 43.9312 128.83 43.9312L128.833 43.9371Z" fill="currentColor"></path>
<path d="M138.645 44.0481C137.366 44.0481 136.243 43.7791 135.276 43.244C134.309 42.7089 133.555 41.9515 133.015 40.969C132.474 39.9894 132.205 38.8344 132.205 37.5039C132.205 36.1734 132.451 35.0564 132.947 34.0213C133.444 32.9861 134.154 32.1703 135.083 31.5679C136.013 30.9656 137.138 30.6644 138.458 30.6644C139.779 30.6644 140.869 30.9392 141.757 31.4919C142.646 32.0446 143.318 32.8136 143.774 33.7961C144.23 34.7815 144.458 35.9161 144.458 37.2056V38.1911H135.802C135.802 38.8461 135.91 39.4192 136.127 39.9046C136.343 40.39 136.655 40.7643 137.067 41.0275C137.479 41.2877 137.973 41.4193 138.555 41.4193C139.177 41.4193 139.721 41.2877 140.185 41.0216C140.65 40.7555 140.974 40.3198 141.156 39.7145H144.443C144.294 40.6269 143.929 41.4105 143.347 42.0568C142.766 42.7059 142.061 43.2001 141.229 43.5393C140.399 43.8785 139.537 44.051 138.64 44.051L138.645 44.0481ZM135.808 36.0214H141.062C141.062 35.5067 140.966 35.0359 140.77 34.6061C140.574 34.1792 140.285 33.837 139.899 33.5856C139.513 33.3312 139.028 33.2054 138.45 33.2054C137.871 33.2054 137.418 33.3399 137.024 33.609C136.629 33.878 136.325 34.2289 136.115 34.6616C135.904 35.0944 135.802 35.5477 135.811 36.0184L135.808 36.0214Z" fill="currentColor"></path>
<path d="M38.1733 5.52084V39.7985H4.0824V5.52084H38.1733ZM42.2557 1.41608H0V43.9033H42.2557V1.41608Z" fill="currentColor"></path>
</g>
<defs>
<clipPath id="clip0_666_208">
<rect width="209" height="45" fill="currentColor"></rect>
</clipPath>
</defs>
</svg>
