<svg id="Layer_1" data-name="Layer 1" xmlns="http://www.w3.org/2000/svg" viewBox="0 0 1300 400"><defs><style>.cls-1{fill:#01001a;}</style></defs><path class="cls-1" d="M296.62,86.81c-29.83-21.67-63.71-44.9-91.81-61-28.09,16.09-62,39.32-91.8,61s-62.39,46.72-86.38,68.47C33.26,187,44.88,226.37,56.27,261.44s25.15,73.77,38.42,103.31c32.19,3.49,73.25,4.61,110.12,4.61s77.94-1.12,110.13-4.61c12.63-28.11,25.69-64.52,36.75-98.2l1.67-5.11c3.27-10.06,6.56-20.48,9.74-31-9.86-8.26-19.61-16.53-29.29-24.71-26.05-22-60.78-53.66-89.16-69.09a85.85,85.85,0,0,0-39.84-9.75c-15.27,0-32.69,4-50.15,16.16l-.5.36h0l-.5.36a85.41,85.41,0,0,0-31,95.4c.07.2.13.4.19.6l.2.59a85.42,85.42,0,0,0,81.15,59h1.25a85.42,85.42,0,0,0,76.37-47.28c-10.64-9.26-19.9-17.25-28-24.06-.06.2-.13.4-.19.6l-.12.37-.12.37a50.7,50.7,0,0,1-48.18,35h-.77a50.68,50.68,0,0,1-48.18-35l-.12-.37-.12-.37A50.69,50.69,0,0,1,174.41,172l.32-.23.31-.23a50.58,50.58,0,0,1,27.72-9.62,4.87,4.87,0,0,1,.54,0c22.66-.91,40.59,11.3,87.84,52,9.37,8.07,19.9,17.25,31.85,27.68-1,3.05-1.95,6.08-2.92,9.08-2.87,8.84-5.91,17.92-9,26.94-6.6,19-13.64,37.74-20.51,53.58-25.34,2.42-56.83,3.22-85.71,3.22s-60.36-.8-85.7-3.22C109,307.78,98.48,278.08,89.56,250.62S71.66,193,66.14,168.11c19.08-16.85,44.08-36,67.44-53s49.31-34.84,71.23-47.77c21.93,12.93,47.88,30.8,71.24,47.77s48.36,36.13,67.44,53h0q10.23,8.56,20.67,17.42l9.53,8.05c3.62-13.43,6.81-26.4,9.3-38.3C359,133.53,326.45,108.49,296.62,86.81Z"/><path class="cls-1" d="M686.24,224.47l34.74,4.9c.06-.25.24-1.19.62-2.62,1.81-6.72,6.85-23.89,27-33.43,8.07-3.83,17.65-5.76,28-5.76a63.09,63.09,0,0,1,25.65,5.06,46.58,46.58,0,0,1,7.7,4.26c.83.57,1.66,1.16,2.43,1.79a39,39,0,0,1,4.1,3.7,37.91,37.91,0,0,1,7,9.74,40,40,0,0,1,4.18,17.23c0,.11,0,.21,0,.32-.28,12.39-19.84,14-44.61,16.1l-.14,0c-4.1.35-8.34.7-12.67,1.13-14.7,1.52-29,3.65-41.81,7.33-1.93.57-3.82,1.16-5.69,1.8-10.58,3.61-19.82,8.49-26.93,15.28a47.64,47.64,0,0,0-3.33,3.48c-7.43,8.63-11.79,19.94-11.79,34.91,0,13.23,3.55,25,10.54,34.89.52.75,1.15,1.57,1.92,2.58a56.06,56.06,0,0,0,4.36,4.86c.79.78,1.64,1.58,2.7,2.53a63.35,63.35,0,0,0,5.44,4.25,4.8,4.8,0,0,0,.52.36c13.73,9.43,32.08,15,53.62,15,22.78,0,37.91-6.78,49-13.56l.41-.25c13.1-8.59,19.92-17.36,19.92-17.36-.21,5.75,1,21.26,2.54,24.91H868.2c-.46-2.9-.87-6.85-1.24-9.93-.69-5.84-1.2-12-1.57-18.39-1.93-32.25-1.36-69.52-1.07-93.4.06-4,.07-7.62,0-10.79,0-1.49-.05-2.88-.1-4.16-.25-6.44-1.3-17.6-4-25.44-2.18-6.25-4.14-12.25-12.28-22-9-10.81-15.3-14.09-15.42-14.17-16.93-11.72-37.08-16.17-57-16.17-13.87,0-29,2.45-42.61,9a86,86,0,0,0-31.21,26.08A87.2,87.2,0,0,0,686.24,224.47Zm127,90.63a59.64,59.64,0,0,1-5.32,6.63c-9.32,10.12-23.2,18.11-43.8,19.93-15.09,1.33-27.63-3.57-36.11-10.29a28.31,28.31,0,0,1-2.55-2.25A28,28,0,0,1,717,308.81c0-.64,0-1.27.06-1.88a27,27,0,0,1,.63-4.49c2.51-10.91,11.8-16.6,25.08-20.09,1.72-.45,3.52-.87,5.38-1.25,7.18-1.49,15.27-2.52,23.94-3.46l3.35-.35c14.08-1.51,25.44-2.45,34.75-4.29a61.49,61.49,0,0,0,14-4.25l.18-.08S828.14,293.74,813.28,315.1Z"/><path class="cls-1" d="M1091.41,224.47l34.74,4.9c0-.25.23-1.19.62-2.62,1.81-6.72,6.85-23.89,27-33.43,8.08-3.83,17.66-5.76,28-5.76a63.1,63.1,0,0,1,25.66,5.06,47,47,0,0,1,7.7,4.26c.83.57,1.65,1.16,2.43,1.79a40,40,0,0,1,4.1,3.7,38.15,38.15,0,0,1,7,9.74,40.09,40.09,0,0,1,4.18,17.23c0,.11,0,.21,0,.32-.29,12.39-19.84,14-44.61,16.1l-.14,0c-4.1.35-8.34.7-12.67,1.13-14.7,1.52-29.05,3.65-41.81,7.33-1.93.57-3.83,1.16-5.69,1.8-10.58,3.61-19.82,8.49-26.93,15.28a45.61,45.61,0,0,0-3.33,3.48c-7.43,8.63-11.79,19.94-11.79,34.91,0,13.23,3.55,25,10.54,34.89.52.75,1.14,1.57,1.92,2.58a56.06,56.06,0,0,0,4.36,4.86c.79.78,1.64,1.58,2.7,2.53a64.78,64.78,0,0,0,5.43,4.25,6.18,6.18,0,0,0,.53.36c13.73,9.43,32.08,15,53.62,15,22.77,0,37.91-6.78,49-13.56l.4-.25c13.11-8.59,19.93-17.36,19.93-17.36-.21,5.75,1,21.26,2.54,24.91h36.59c-.46-2.9-.87-6.85-1.24-9.93-.69-5.84-1.2-12-1.58-18.39-1.92-32.25-1.35-69.52-1.06-93.4,0-4,.06-7.62,0-10.79,0-1.49,0-2.88-.1-4.16-.25-6.44-1.3-17.6-4-25.44-2.18-6.25-4.14-12.25-12.28-22-9-10.81-15.3-14.09-15.42-14.17-16.93-11.72-37.08-16.17-57-16.17-13.87,0-29,2.45-42.61,9a85.91,85.91,0,0,0-31.21,26.08A87.2,87.2,0,0,0,1091.41,224.47Zm127,90.63a59.64,59.64,0,0,1-5.32,6.63c-9.33,10.12-23.2,18.11-43.8,19.93-15.09,1.33-27.63-3.57-36.11-10.29a28.31,28.31,0,0,1-2.55-2.25,26.75,26.75,0,0,1-3.35-3.92,27.37,27.37,0,0,1-5.13-16.39c0-.64,0-1.27.06-1.88a26,26,0,0,1,.63-4.49c2.51-10.91,11.8-16.6,25.08-20.09,1.72-.45,3.52-.87,5.38-1.25,7.17-1.49,15.27-2.52,23.93-3.46l3.36-.35c14.08-1.51,25.44-2.45,34.75-4.29a61.64,61.64,0,0,0,14-4.25l.17-.08S1233.3,293.74,1218.45,315.1Z"/><path class="cls-1" d="M545.44,337.9h-.06c-55.86,0-93.29-45.43-93.29-101.27s37.43-101.27,93.29-101.27h.06c21.8.44,59.58,7.58,77.28,57.44l35.13-8c-6.7-27.39-34.31-85.19-112.49-84.94-80.38,0-131.77,61.24-131.77,136.77S465,373.4,545.36,373.4c78.18.25,105.79-57.55,112.49-84.94l-35.13-8C605,330.32,567.24,337.46,545.44,337.9Z"/><path class="cls-1" d="M1060.06,289.92a63,63,0,0,1-3.06,45.89c-4.43,9.36-10.36,16.35-19.56,22.68-17.52,12.08-38.09,17-63.31,15.38-20.07-1.33-31.49-5.44-45.42-14.4-34-21.84-37.66-64.79-37.65-64.82l34.65-4.88c3.76,26.68,18.41,41.63,34.54,47.39A69.24,69.24,0,0,0,993,340.69c7.5-1.16,22.07-6.07,29.42-17.64a27.44,27.44,0,0,0,1.74-26.14c-2.4-5-7.11-9-16.29-13.64-10.28-5.2-22.32-6.49-33.52-8.77l-3-.61c-12.56-2.6-29-6.59-44.35-14.56-16.45-8.52-26.56-23.65-27.74-41.54-1.28-19.17,7.76-37.46,24.15-48.92C938,158.71,954.84,153.65,975,153.4c20.42-.24,37.55,4,52.33,13.12,15.2,9.31,24.21,22.67,29.84,41.86a89.94,89.94,0,0,1,2.43,10.35c.41,2,.66,4.42.91,5.74l-34.66,4.88a86.69,86.69,0,0,0-2.38-10.94c-4.34-15.66-15.49-27.68-30.77-31.41-16.3-4-30.07-2.65-42.07,4.06A25.5,25.5,0,0,0,937.46,213c-.19,8.4,4.59,16.25,13.12,21.55,8.85,5.5,18.7,7.2,30.55,9.5,18.11,3.51,30.37,6,47.9,13.61C1043,263.73,1054.75,273.26,1060.06,289.92Z"/></svg>