
        <svg xmlns="http://www.w3.org/2000/svg" xmlns:xlink="http://www.w3.org/1999/xlink" version="1.1" width="3159.7114889232353" 
        height="912.9314319844265" viewBox="-47.913446676970636 -31.942297784647092 3159.7114889232353 912.9314319844265">
			
			<g transform="scale(7.985574446161773) translate(10, 10)">
				<defs id="SvgjsDefs2672"></defs><g id="SvgjsG2673" featureKey="S6ay6y-0" transform="matrix(1.5308909994133877,0,0,1.5308909994133877,-9.827226038562042,-7.827225308576328)" fill="#3e588f"><title xmlns="http://www.w3.org/2000/svg">1</title><path xmlns="http://www.w3.org/2000/svg" d="M2.61,37.02a1.45852,1.45852,0,0,1-.11-.55V4A1.498,1.498,0,0,1,4,2.5H15.77a1.50728,1.50728,0,0,1,1.06.44L27.18,13.29a1.49682,1.49682,0,0,1,0,2.12L5.06,37.53A1.50653,1.50653,0,0,1,2.61,37.02Z"></path><path xmlns="http://www.w3.org/2000/svg" d="M61.5,4V15.77a1.809,1.809,0,0,1-.11.57,1.62577,1.62577,0,0,1-.33.49L50.71,27.18a1.50713,1.50713,0,0,1-2.12,0L26.47,5.06a1.5155,1.5155,0,0,1,.4901-2.45,1.79313,1.79313,0,0,1,.57-.11L60,2.5A1.498,1.498,0,0,1,61.5,4Z"></path><path xmlns="http://www.w3.org/2000/svg" d="M61.39,26.98a1.45841,1.45841,0,0,1,.11.55V60A1.498,1.498,0,0,1,60,61.5H48.23a1.50747,1.50747,0,0,1-1.06-.44L36.82,50.71a1.49678,1.49678,0,0,1,0-2.12L58.94,26.47A1.50658,1.50658,0,0,1,61.39,26.98Z"></path><path xmlns="http://www.w3.org/2000/svg" d="M19.17,30.94,30.94,19.17a1.509,1.509,0,0,1,2.12,0L44.83,30.94a1.50907,1.50907,0,0,1,0,2.12L33.06,44.83a1.51876,1.51876,0,0,1-2.12,0L19.17,33.06A1.50906,1.50906,0,0,1,19.17,30.94Z"></path><path xmlns="http://www.w3.org/2000/svg" d="M37.86,59.45a1.50661,1.50661,0,0,1-1.39,2.05L4,61.5A1.498,1.498,0,0,1,2.5,60V48.23a1.81029,1.81029,0,0,1,.11-.57,1.62669,1.62669,0,0,1,.33-.49L13.29,36.82a1.54761,1.54761,0,0,1,2.12,0L37.53,58.94A1.28931,1.28931,0,0,1,37.86,59.45Z"></path></g><g id="SvgjsG2674" featureKey="j5pGhi-0" transform="matrix(3.4987525610873145,0,0,3.4987525610873145,102.302745032942,1.765791920359181)" fill="#111111"><path d="M12.66 20 l-10.46 0 l0 -14.92 l2.18 0 l0 12.74 l8.28 0 l0 2.18 z M20.2 11.64 q1.34 -1.4 2.42 -3.12 t1.72 -3.44 l2.5 0 q-1.02 2.38 -2.48 4.56 q-1.32 1.98 -3.08 3.9 l0 6.46 l-2.16 0 l0 -6.46 q-1.76 -1.92 -3.08 -3.9 q-1.46 -2.18 -2.48 -4.56 l2.5 0 q0.64 1.72 1.72 3.44 t2.42 3.12 z M42.32000000000001 7 l-1.4 1.64 q-0.82 -0.84 -1.96 -1.32 t-2.4 -0.48 q-1.64 0 -2.99 0.74 t-2.11 2.02 q-0.78 1.34 -0.78 2.98 q0 1.56 0.84 2.88 q0.8 1.24 2.15 1.97 t2.91 0.73 q1.1 0 2.11 -0.38 t1.81 -1.06 l0 -2.72 l-1.92 0 l-0.94 -2.16 l5.02 0 l0 5.8 q-1.14 1.28 -2.73 1.99 t-3.37 0.71 q-2.22 0 -4.08 -1.08 q-1.82 -1.04 -2.86 -2.86 q-1.08 -1.86 -1.08 -4.08 q0 -2.14 1.14 -3.94 q1.08 -1.72 2.93 -2.73 t3.97 -1.01 q1.66 0 3.16 0.64 q1.46 0.6 2.58 1.72 z M59.260000000000005 12.440000000000001 q0 -1.6 -0.82 -2.9 q-0.78 -1.26 -2.13 -1.98 t-2.93 -0.72 q-1.64 0 -2.99 0.74 t-2.11 2.02 q-0.78 1.34 -0.78 2.98 q0 1.56 0.84 2.88 q0.8 1.24 2.15 1.97 t2.92 0.73 t2.92 -0.76 t2.13 -2.04 q0.8 -1.34 0.8 -2.92 z M61.42 12.559999999999999 q0 2.16 -1.12 3.98 q-1.08 1.74 -2.93 2.77 t-3.99 1.03 q-2.22 0 -4.08 -1.08 q-1.82 -1.04 -2.86 -2.86 q-1.08 -1.86 -1.08 -4.08 q0 -2.14 1.14 -3.94 q1.08 -1.72 2.93 -2.73 t3.97 -1.01 q2.18 0 4.04 1.06 q1.82 1.04 2.88 2.82 q1.1 1.86 1.1 4.04 z M76.42 15.46 q0 1.46 -0.88 2.6 q-0.86 1.08 -2.37 1.68 t-3.41 0.6 q-1.74 0 -3.38 -0.81 t-2.76 -2.25 l1.56 -1.46 q1.94 2.34 4.58 2.34 q1.16 0 2.12 -0.28 q1.06 -0.32 1.64 -0.9 q0.66 -0.64 0.66 -1.52 q0 -1.06 -0.66 -1.6 q-0.56 -0.46 -1.66 -0.6 q-0.64 -0.08 -2.1 -0.08 q-2.68 0 -4.09 -0.98 t-1.41 -2.88 q0 -1.2 0.71 -2.28 t1.95 -1.72 q1.28 -0.68 2.84 -0.68 q1.76 0 3.18 0.54 q1.52 0.58 2.82 1.82 l-1.36 1.6 q-1.22 -0.98 -2.22 -1.37 t-2.42 -0.39 q-0.82 0 -1.53 0.34 t-1.13 0.91 t-0.42 1.21 q0 1.72 3.18 1.72 q2.54 0 4.02 0.52 q1.4 0.5 2 1.52 q0.54 0.9 0.54 2.4 z"></path></g>
			</g>
		</svg>
	