<svg width="2099" height="215" viewBox="0 0 2099 215" fill="none" xmlns="http://www.w3.org/2000/svg">
<g clip-path="url(#clip0_2842_819)">
<path d="M1692.76 9.50781H1500.25V60.441H1571.04V209.638H1622.01V60.441H1692.76V9.50781Z" fill="black"/>
<path d="M1466.12 209.638V9.50781H1265.9V209.638H1466.12ZM1415.1 60.441V158.286H1316.92V60.441H1415.1Z" fill="black"/>
<path d="M1927.15 9.50781H1726.94V209.638H1927.15V9.50781ZM1876.13 60.441V158.286H1777.95V60.441H1876.13Z" fill="black"/>
<path d="M1223.64 9.50781V209.638H1172.62V60.441H1122.24V209.638H1070.42V60.441H1014.8V209.638H963.784V9.50781H1223.64Z" fill="black"/>
<path d="M442.771 9.50781H243.899V209.638H294.915V158.286H391.755V209.638H442.771V9.50781ZM391.755 109.447H294.915V60.3991H391.755V109.447Z" fill="black"/>
<path d="M722.188 209.638H773.205V158.286H870.044V209.638H921.061V9.50781H722.188V209.638ZM870.044 109.447H773.205V60.3991H870.044V109.447Z" fill="black"/>
<path d="M149.657 140.946V209.638H200.673V9.50781H149.657V78.5357L51.0165 9.50781H0V209.638H51.0165V71.7502L149.657 140.946Z" fill="black"/>
<path d="M626.103 209.638L537.222 147.48V209.638H486.206V9.50781H537.222V72.6298L627.653 9.50781H680.219L680.261 59.0588H644.994L642.104 61.0693L572.699 109.447L643.653 159.71H680.219V209.638H626.103Z" fill="black"/>
<path d="M2077.73 167.292C2071.32 161.386 2065.58 154.852 2060.55 147.689C2057.71 143.543 2055.23 139.354 2053.01 135.124H2092.47V119.5H2043.76V80.2114H2076.72V86.6199H2092.89V22.2833H2043.51V0H2027.21V22.2833H1978.75V87.2482H1994.12V80.2114H2027.21V119.5H1979.17V135.124H2018.38C2017.12 137.637 2015.78 140.108 2014.31 142.537C2010.96 148.192 2007.19 153.553 2002.92 158.705C1998.73 163.815 1994.21 168.507 1989.35 172.695C1984.49 176.884 1979.38 180.444 1974.1 183.334C1975.4 184.256 1976.66 185.554 1977.96 187.188C1979.34 188.738 1980.68 190.287 1982.06 191.921C1983.44 193.471 1984.53 194.853 1985.41 196.151C1992.62 191.544 1999.32 185.973 2005.52 179.523V193.219H2027.55V215H2043.84V193.219H2065.12V178.601C2065.12 178.601 2065.2 178.685 2065.25 178.727C2071.74 185.387 2078.69 191.041 2086.15 195.649C2087.07 194.183 2088.24 192.633 2089.62 190.916C2091 189.115 2092.39 187.397 2093.85 185.806C2095.4 184.172 2096.79 182.874 2098.08 181.826C2091 178.057 2084.26 173.24 2077.85 167.334L2077.73 167.292ZM2076.76 37.4041V65.0906H2043.55V37.4041H2076.76ZM1994.17 65.0906V37.4041H2027.26V65.0906H1994.17ZM2007.28 177.554C2013.31 171.062 2018.75 163.899 2023.65 156.025C2024.99 153.889 2026.25 151.71 2027.51 149.532V177.554H2007.28ZM2043.8 177.554V149.155C2045.1 151.501 2046.48 153.847 2047.9 156.15C2052.76 163.983 2058.17 171.104 2064.16 177.554H2043.8Z" fill="black"/>
</g>
<defs>
<clipPath id="clip0_2842_819">
<rect width="2098.08" height="215" fill="white"/>
</clipPath>
</defs>
</svg>
