<svg width="107" height="24" viewBox="0 0 107 24" fill="none" xmlns="http://www.w3.org/2000/svg">
<g id="logotype">
<path id="Vector" d="M15.9608 1.88352C14.4421 0.935945 12.6586 0.462158 10.6144 0.462158C8.57021 0.462158 6.78256 0.935945 5.25561 1.88352C3.72452 2.83109 2.5369 4.16182 1.68859 5.88393C0.840285 7.60605 0.414062 9.64539 0.414062 12.002C0.414062 14.3585 0.840285 16.3732 1.68859 18.1035C2.5369 19.8339 3.72452 21.1728 5.25561 22.1204C6.7867 23.068 8.57021 23.5418 10.6144 23.5418C12.6586 23.5418 14.4421 23.068 15.965 22.1204C17.4878 21.1728 18.6754 19.838 19.5196 18.1118C20.3637 16.3855 20.7858 14.3503 20.7858 12.002C20.7858 9.65363 20.3596 7.60605 19.5113 5.88393C18.663 4.16182 17.4795 2.83109 15.9567 1.88352H15.9608ZM16.8381 16.6533C16.267 17.9634 15.4601 18.9769 14.4049 19.6897C13.3538 20.4024 12.0876 20.7609 10.6144 20.7609C9.14126 20.7609 7.85846 20.4024 6.79497 19.6897C5.73149 18.9769 4.92042 17.9634 4.36178 16.6533C3.80314 15.3432 3.52175 13.79 3.52175 12.002C3.52175 10.2139 3.80314 8.66074 4.36178 7.35061C4.92042 6.04049 5.73149 5.027 6.79497 4.31425C7.85846 3.60151 9.12885 3.24308 10.6144 3.24308C12.1 3.24308 13.3249 3.60151 14.3801 4.31425C15.4353 5.027 16.2546 6.04049 16.8257 7.35061C17.4009 8.66074 17.6864 10.2139 17.6864 12.002C17.6864 13.79 17.4009 15.3432 16.8339 16.6533H16.8381Z" fill="white"/>
<path id="Vector_2" d="M30.6467 4.30186C31.735 3.59324 33.0385 3.23893 34.5654 3.23893C35.3599 3.23893 36.1007 3.37077 36.7917 3.63444C37.4828 3.89812 38.1076 4.28127 38.658 4.77977C39.2125 5.27828 39.6718 5.87978 40.0401 6.57604C40.4043 7.27642 40.6608 8.05508 40.8015 8.91614H43.9258C43.7933 7.61014 43.4582 6.44009 42.9202 5.40187C42.3823 4.36366 41.6912 3.47789 40.847 2.73631C40.0029 1.99885 39.047 1.43442 37.9711 1.04303C36.8993 0.651643 35.7572 0.458008 34.5489 0.458008C32.4633 0.458008 30.6425 0.923555 29.0825 1.85465C27.5224 2.78575 26.31 4.11235 25.4451 5.83858C24.5803 7.56482 24.1499 9.61652 24.1499 11.9937C24.1499 14.3709 24.5761 16.4102 25.4244 18.1406C26.2727 19.8709 27.4769 21.2017 29.0328 22.1327C30.5887 23.0638 32.4261 23.5294 34.553 23.5294C35.8524 23.5294 37.0566 23.3234 38.1573 22.9073C39.2622 22.4912 40.2263 21.9062 41.0539 21.1522C41.8816 20.3983 42.5436 19.5043 43.0444 18.4743C43.5409 17.4402 43.8389 16.3072 43.9299 15.0754H40.8057C40.7353 15.9076 40.5243 16.6657 40.1725 17.3619C39.8208 18.0541 39.3656 18.6597 38.7987 19.1705C38.2359 19.6814 37.5945 20.0728 36.8786 20.3488C36.1627 20.6207 35.393 20.7567 34.5696 20.7567C32.993 20.7567 31.6646 20.3983 30.5805 19.6855C29.4963 18.9728 28.6728 17.9593 28.11 16.6492C27.5473 15.339 27.2617 13.7859 27.2617 11.9978C27.2617 10.2098 27.5555 8.65247 28.139 7.33822C28.7225 6.02398 29.5584 5.01049 30.6467 4.30186Z" fill="white"/>
<path id="Vector_3" d="M50.8115 13.1514H60.8132V10.4982H50.8115V3.54383H62.067V0.824707H47.7617V23.171H62.2615V20.456H50.8115V13.1514Z" fill="white"/>
<path id="Vector_4" d="M73.3352 0.824707L65.146 23.171H68.3778L70.6496 16.7028H79.621L81.8597 23.171H85.2612L77.0719 0.824707H73.3352ZM71.56 14.1237L75.1519 3.90638H75.1974L78.7313 14.1237H71.56Z" fill="white"/>
<path id="Vector_5" d="M103.328 0.824707V18.2106H103.27L91.4227 0.824707H88.3398V23.171H91.3896V5.78917H91.4517L103.299 23.171H106.378V0.824707H103.328Z" fill="white"/>
</g>
</svg>
