<svg width="223" height="48" fill="none" xmlns="http://www.w3.org/2000/svg"><path d="M8.798 20.723c-.106 1.6 1.607 2.653 1.607 2.653L18.8 28.19l-5.157 3.032-6.86-3.87c-3.195-1.402-2.891-4.339-2.891-4.339l-.069-11.471 3.559-2.983 1.417 12.165ZM34.55 38.346l4.05-2.85-.462-11.464s.213-2.945-3.031-4.24l-6.981-3.673-5.056 3.213 8.546 4.548s1.736 1.023 1.687 2.623l1.247 11.843ZM27.323 4.617 23.063 2.4 13.21 8.297s-2.684 1.231-2.274 4.695l.132 7.89 5.29 2.888-.124-9.675s-.057-1.895 1.372-2.634l9.716-6.844Zm13.415 14.761-.447-4.965-10.054-5.525s-2.418-1.694-5.196.417l-6.746 4.085.152 5.988 8.292-4.98s1.656-.864 3.005 0l10.994 4.98ZM15.252 41.946l3.919 2.565 9.895-5.802s2.694-1.205 2.304-4.676l-.057-7.89-5.218-2.937.034 9.675s-.254 2.202-1.69 2.914l-9.187 6.15ZM1.2 27.469l.424 4.96 10.028 5.568s2.41 1.71 5.2-.38l6.76-4.077-.125-5.988-8.31 4.954s-1.664.856-3.006 0L1.2 27.469Z" fill="url(#a)"/><path d="M57.292 32.48a13.511 13.511 0 0 1-3.9-.535 9.805 9.805 0 0 1-3.054-1.486l.997-2.516c.555.393 1.148.73 1.77 1.008a9.207 9.207 0 0 0 1.97.625c.73.144 1.473.215 2.217.212 1.311 0 2.259-.215 2.843-.648a2.02 2.02 0 0 0 .871-1.697 1.705 1.705 0 0 0-.599-1.406 5.255 5.255 0 0 0-2.14-.811l-2.828-.576c-1.614-.334-2.82-.89-3.615-1.672a4.17 4.17 0 0 1-1.198-3.138 4.816 4.816 0 0 1 .872-2.868 5.685 5.685 0 0 1 2.444-1.895 9.193 9.193 0 0 1 3.665-.675 10.86 10.86 0 0 1 3.464.535 7.287 7.287 0 0 1 2.652 1.516l-.996 2.39a7.308 7.308 0 0 0-2.342-1.333 8.775 8.775 0 0 0-2.843-.436 4.779 4.779 0 0 0-2.75.686 2.175 2.175 0 0 0-.986 1.895 1.895 1.895 0 0 0 .61 1.47 4.524 4.524 0 0 0 2.08.845l2.793.55c1.66.333 2.89.878 3.688 1.633a3.994 3.994 0 0 1 1.197 3.05 4.615 4.615 0 0 1-.849 2.756 5.547 5.547 0 0 1-2.39 1.846 9.296 9.296 0 0 1-3.643.674ZM69.404 32.225l7.959-17.569h2.69l8.054 17.57H84.84l-2.145-4.927 1.296.871H73.444l1.346-.871-2.146 4.926h-3.24Zm9.274-14.147-3.532 8.338-.648-.758h8.375l-.523.758-3.589-8.338h-.083ZM93.207 32.225v-2.368l9.854-13.556v1.02h-9.854v-2.653h12.908v2.342l-9.853 13.555v-.996h10.194v2.653l-13.249.003ZM113.445 32.225V14.668h2.815l6.443 14.53h-.758l6.442-14.53h2.793v17.569h-2.914V19.192h.895l-5.886 13.033h-1.933l-5.904-13.033h.921v13.033h-2.914ZM139.336 32.225V14.668h3.218v17.569l-3.218-.012ZM150.652 32.225V14.668h2.418l10.194 13.184h-.648V14.668h2.99v17.569h-2.417l-10.168-13.185h.621v13.185l-2.99-.012ZM173.705 32.225V14.668h3.218v17.569l-3.218-.012ZM185.021 32.225V14.668h2.418l10.191 13.184h-.645V14.668h2.99v17.569h-2.421l-10.168-13.185h.621v13.185l-2.986-.012ZM216.548 32.48a10.32 10.32 0 0 1-4.984-1.1 7.11 7.11 0 0 1-3.032-3.115 10.47 10.47 0 0 1-1.019-4.783 10.025 10.025 0 0 1 1.095-4.824 7.606 7.606 0 0 1 3.153-3.138 10.298 10.298 0 0 1 4.927-1.11 10.063 10.063 0 0 1 3.365.511 7.63 7.63 0 0 1 2.543 1.482l-1.072 2.494a9.542 9.542 0 0 0-1.516-.997 5.924 5.924 0 0 0-1.516-.538 8.949 8.949 0 0 0-1.793-.16c-1.93 0-3.388.544-4.373 1.63-.985 1.087-1.481 2.644-1.486 4.673 0 2.021.47 3.568 1.41 4.639.94 1.071 2.414 1.602 4.423 1.591.69 0 1.379-.066 2.058-.197a12.868 12.868 0 0 0 2.031-.572l-.599 1.345v-5.263h-4.089v-2.342h6.78v8.447a11.61 11.61 0 0 1-2.918.974c-1.115.231-2.25.35-3.388.352Z" fill="#0C9F97"/><defs><linearGradient id="a" x1="11.22" y1="6.361" x2="30.541" y2="40.604" gradientUnits="userSpaceOnUse"><stop stop-color="#00B799"/><stop offset=".21" stop-color="#00B799" stop-opacity=".96"/><stop offset=".5" stop-color="#00B799" stop-opacity=".85"/><stop offset=".86" stop-color="#00B799" stop-opacity=".68"/><stop offset="1" stop-color="#00B799" stop-opacity=".6"/></linearGradient></defs></svg>