<?xml version="1.0" encoding="utf-8"?>
<!-- Generator: Adobe Illustrator 30.2.1, SVG Export Plug-In . SVG Version: 9.03 Build 0)  -->
<svg version="1.0" id="Layer_1" xmlns="http://www.w3.org/2000/svg" xmlns:xlink="http://www.w3.org/1999/xlink" x="0px" y="0px"
	 viewBox="0 0 784 232" style="enable-background:new 0 0 784 232;" xml:space="preserve">
<style type="text/css">
	.st0{clip-path:url(#SVGID_00000062901596364262184040000009564184260178095797_);}
	.st1{fill:#0482D8;}
</style>
<g>
	<defs>
		<rect id="SVGID_1_" x="62.07" y="36.24" width="167.62" height="167.63"/>
	</defs>
	<clipPath id="SVGID_00000099640920828135048360000001146408500836011907_">
		<use xlink:href="#SVGID_1_"  style="overflow:visible;"/>
	</clipPath>
	<g style="clip-path:url(#SVGID_00000099640920828135048360000001146408500836011907_);">
		<path class="st1" d="M229.54,70.42c0-18.88-15.3-34.19-34.19-34.19c-18.79,0-34.02,15.16-34.17,33.91l-27.58,3.69
			c-3.46-10.6-13.41-18.26-25.16-18.26c-14.62,0-26.47,11.85-26.47,26.47c0,11.72,7.62,21.64,18.18,25.13l-3.89,28.33
			c-18.81,0.09-34.03,15.35-34.03,34.18c0,18.88,15.3,34.19,34.19,34.19c18.84,0,34.11-15.24,34.18-34.06l31.93-4.41
			c3.49,10.54,13.41,18.15,25.12,18.15c14.62,0,26.47-11.85,26.47-26.47c0-12.16-8.21-22.38-19.38-25.48l2.41-27.07
			C215.19,103.58,229.54,88.7,229.54,70.42z M161.23,155.87l-31.96,4.42c-3.23-11.33-12.15-20.24-23.49-23.47l3.89-28.37
			c13.61-0.62,24.51-11.5,25.18-25.1l27.62-3.69c3.34,11.92,12.97,21.19,25.1,24.02l-2.41,27.04
			C172.1,131.93,161.83,142.63,161.23,155.87z"/>
	</g>
</g>
<g>
	<g transform="translate(465.788897, 819.039749)">
		<g>
			<path d="M-192.68-663.18c-7.09,0-13.18-1.16-18.27-3.48c-5.09-2.32-9.75-5.85-13.98-10.57l12.46-12.34
				c2.77,3.18,5.85,5.64,9.23,7.39c3.38,1.75,7.31,2.62,11.79,2.62c4.07,0,7.23-0.73,9.47-2.2c2.24-1.47,3.36-3.5,3.36-6.11
				c0-2.36-0.73-4.28-2.2-5.74c-1.46-1.47-3.4-2.73-5.8-3.79c-2.4-1.06-5.05-2.07-7.95-3.05c-2.89-0.98-5.76-2.1-8.61-3.36
				c-2.85-1.26-5.48-2.85-7.88-4.76c-2.4-1.92-4.34-4.32-5.8-7.21c-1.46-2.89-2.2-6.54-2.2-10.94c0-5.3,1.28-9.86,3.84-13.69
				c2.57-3.83,6.13-6.74,10.7-8.73c4.56-1.99,9.81-2.99,15.76-2.99c6.03,0,11.55,1.06,16.55,3.18c5.01,2.12,9.14,5.01,12.41,8.67
				l-12.46,12.34c-2.61-2.69-5.24-4.68-7.88-5.98c-2.65-1.3-5.64-1.95-8.98-1.95c-3.34,0-5.98,0.63-7.94,1.9
				c-1.95,1.26-2.93,3.07-2.93,5.43c0,2.2,0.73,3.97,2.2,5.32c1.47,1.34,3.4,2.51,5.8,3.48c2.4,0.97,5.05,1.95,7.94,2.93
				c2.89,0.97,5.77,2.12,8.62,3.42c2.85,1.3,5.47,2.95,7.88,4.95c2.41,2,4.34,4.52,5.8,7.58c1.47,3.05,2.2,6.82,2.2,11.3
				c0,8.23-2.93,14.69-8.8,19.37C-174.24-665.52-182.34-663.18-192.68-663.18z"/>
		</g>
	</g>
</g>
<g>
	<g transform="translate(607.520338, 819.039749)">
		<g>
			<path d="M-262.57-663.18c-6.11,0-11.63-1.36-16.55-4.09c-4.93-2.73-8.82-6.46-11.67-11.18c-2.85-4.72-4.27-10.02-4.27-15.88
				c0-5.86,1.42-11.12,4.27-15.76c2.85-4.64,6.72-8.33,11.61-11.06c4.88-2.73,10.42-4.09,16.62-4.09c6.19,0,11.73,1.35,16.62,4.04
				c4.88,2.69,8.75,6.37,11.6,11.05c2.85,4.68,4.28,9.96,4.28,15.82c0,5.87-1.43,11.16-4.28,15.88c-2.85,4.72-6.72,8.45-11.6,11.18
				C-250.84-664.54-256.38-663.18-262.57-663.18z M-262.57-680.16c2.69,0,5.05-0.59,7.09-1.77c2.04-1.18,3.6-2.85,4.7-5.01
				c1.1-2.16,1.65-4.63,1.65-7.4c0-2.77-0.57-5.19-1.71-7.27c-1.14-2.08-2.71-3.71-4.7-4.89c-2-1.18-4.34-1.77-7.02-1.77
				c-2.61,0-4.93,0.59-6.96,1.77c-2.04,1.18-3.62,2.83-4.77,4.95c-1.14,2.12-1.71,4.56-1.71,7.33c0,2.69,0.57,5.11,1.71,7.27
				c1.14,2.16,2.73,3.83,4.77,5.01C-267.5-680.75-265.18-680.16-262.57-680.16z"/>
		</g>
	</g>
</g>
<g>
	<g transform="translate(748.274333, 819.039749)">
		<g>
			<path d="M-336.74-663.3c-5.46,0-10.33-1.34-14.6-4.03c-4.28-2.69-7.66-6.35-10.14-10.99c-2.48-4.64-3.73-9.94-3.73-15.88
				c0-5.95,1.24-11.24,3.73-15.88c2.48-4.64,5.86-8.31,10.14-11c4.28-2.69,9.14-4.03,14.6-4.03c3.99,0,7.6,0.77,10.81,2.32
				c3.22,1.55,5.85,3.69,7.88,6.41c2.04,2.73,3.18,5.85,3.42,9.35v25.66c-0.25,3.5-1.37,6.62-3.36,9.34c-2,2.73-4.62,4.87-7.88,6.41
				C-329.12-664.07-332.74-663.3-336.74-663.3z M-332.95-680.16c3.99,0,7.21-1.32,9.65-3.97c2.45-2.64,3.67-6,3.67-10.08
				c0-2.77-0.55-5.21-1.66-7.33c-1.1-2.12-2.65-3.77-4.64-4.95c-2-1.18-4.29-1.77-6.9-1.77c-2.61,0-4.91,0.59-6.91,1.77
				c-2,1.18-3.58,2.83-4.77,4.95c-1.18,2.12-1.77,4.56-1.77,7.33c0,2.69,0.57,5.09,1.71,7.21c1.14,2.12,2.73,3.79,4.77,5.01
				C-337.76-680.77-335.48-680.16-332.95-680.16z M-320.36-664.52v-16.01l2.81-14.41l-2.81-14.42v-14.54h18.33v59.38H-320.36z"/>
		</g>
	</g>
</g>
<g>
	<g transform="translate(893.671278, 819.039749)">
		<g>
			<path d="M-400.03-663.3c-3.99,0-7.65-0.77-10.99-2.32c-3.34-1.55-6.07-3.68-8.19-6.41c-2.12-2.73-3.34-5.84-3.66-9.34v-25.05
				c0.32-3.5,1.54-6.68,3.66-9.53c2.12-2.85,4.85-5.09,8.19-6.72c3.34-1.63,7-2.45,10.99-2.45c5.62,0,10.61,1.34,14.97,4.03
				c4.36,2.69,7.78,6.36,10.27,11c2.48,4.64,3.73,9.94,3.73,15.88c0,5.94-1.24,11.24-3.73,15.88c-2.48,4.64-5.91,8.3-10.27,10.99
				C-389.42-664.64-394.41-663.3-400.03-663.3z M-434.23-639.47v-84.43h18.69v15.27l-3.05,14.42l2.81,14.41v40.32H-434.23z
				 M-403.44-680.16c2.69,0,5.03-0.61,7.02-1.83c1.99-1.22,3.56-2.89,4.7-5.01c1.14-2.12,1.71-4.52,1.71-7.21
				c0-2.77-0.57-5.21-1.71-7.33c-1.14-2.12-2.71-3.77-4.7-4.95c-2-1.18-4.3-1.77-6.91-1.77c-2.61,0-4.91,0.59-6.91,1.77
				c-2,1.18-3.56,2.83-4.7,4.95c-1.14,2.12-1.7,4.56-1.7,7.33c0,2.69,0.55,5.09,1.65,7.21c1.1,2.12,2.67,3.79,4.7,5.01
				C-408.25-680.77-405.97-680.16-403.44-680.16z"/>
		</g>
	</g>
</g>
<g>
	<g transform="translate(1039.068223, 819.039749)">
		<g>
			<path d="M-472.73-663.3c-3.99,0-7.65-0.83-10.99-2.5c-3.34-1.67-6.07-3.91-8.19-6.72c-2.12-2.81-3.34-5.97-3.66-9.47v-25.05
				c0.32-3.5,1.54-6.62,3.66-9.35c2.12-2.73,4.85-4.87,8.19-6.41c3.34-1.55,7-2.32,10.99-2.32c5.62,0,10.61,1.34,14.97,4.03
				c4.36,2.69,7.78,6.36,10.27,11c2.48,4.64,3.73,9.94,3.73,15.88c0,5.94-1.24,11.24-3.73,15.88c-2.48,4.64-5.91,8.3-10.27,10.99
				C-462.12-664.64-467.1-663.3-472.73-663.3z M-506.93-664.52v-88.7h18.69v43.86l-3.05,14.42l2.81,14.41v16.01H-506.93z
				 M-476.03-680.16c2.61,0,4.91-0.61,6.91-1.83c1.99-1.22,3.56-2.89,4.7-5.01c1.14-2.12,1.71-4.52,1.71-7.21
				c0-2.77-0.57-5.21-1.71-7.33c-1.14-2.12-2.71-3.77-4.7-4.95c-2-1.18-4.3-1.77-6.91-1.77c-2.61,0-4.93,0.59-6.96,1.77
				c-2.04,1.18-3.61,2.83-4.7,4.95c-1.1,2.12-1.65,4.56-1.65,7.33c0,2.77,0.57,5.21,1.7,7.33c1.14,2.12,2.71,3.77,4.7,4.95
				C-480.93-680.75-478.63-680.16-476.03-680.16z"/>
		</g>
	</g>
</g>
<g>
	<g transform="translate(1184.465168, 819.039749)">
		<g>
			<path d="M-551.05-663.18c-6.11,0-11.63-1.36-16.55-4.09c-4.93-2.73-8.82-6.46-11.67-11.18c-2.85-4.72-4.27-10.02-4.27-15.88
				c0-5.86,1.42-11.12,4.27-15.76c2.85-4.64,6.72-8.33,11.61-11.06c4.88-2.73,10.42-4.09,16.62-4.09c6.19,0,11.73,1.35,16.62,4.04
				c4.88,2.69,8.75,6.37,11.6,11.05c2.85,4.68,4.28,9.96,4.28,15.82c0,5.87-1.43,11.16-4.28,15.88c-2.85,4.72-6.72,8.45-11.6,11.18
				C-539.31-664.54-544.85-663.18-551.05-663.18z M-551.05-680.16c2.69,0,5.05-0.59,7.09-1.77c2.04-1.18,3.6-2.85,4.7-5.01
				c1.1-2.16,1.65-4.63,1.65-7.4c0-2.77-0.57-5.19-1.71-7.27c-1.14-2.08-2.71-3.71-4.7-4.89c-2-1.18-4.34-1.77-7.02-1.77
				c-2.61,0-4.93,0.59-6.96,1.77c-2.04,1.18-3.62,2.83-4.77,4.95c-1.14,2.12-1.71,4.56-1.71,7.33c0,2.69,0.57,5.11,1.71,7.27
				c1.14,2.16,2.73,3.83,4.77,5.01C-555.97-680.75-553.65-680.16-551.05-680.16z"/>
		</g>
	</g>
</g>
<g>
	<g transform="translate(1322.042456, 819.039749)">
		<g>
			<path d="M-611.65-664.52l-14.3-23.09l-4.03-2.56l-23.34-33.73h21.87l13.32,21.63l3.91,2.44l24.2,35.31H-611.65z M-654.41-664.52
				l24.31-34.58l10.63,11.98l-14.54,22.6H-654.41z M-614.33-690.3l-10.63-11.97l13.44-21.63h20.29L-614.33-690.3z"/>
		</g>
	</g>
</g>
</svg>
