<svg width="94" height="25" viewBox="0 0 94 25" fill="none" xmlns="http://www.w3.org/2000/svg">
<path d="M0 9.27476C0 7.91962 1.10042 6.82193 2.45892 6.82193H12.1252V11.7355H2.45892C1.10042 11.7355 0 10.6378 0 9.28266V9.27634V9.27476ZM24.2503 22.1723C24.2503 23.5274 23.1499 24.6251 21.7914 24.6251H2.45892C1.10042 24.6251 0 23.5274 0 22.1723V22.1644C0 20.8092 1.10042 19.7115 2.45892 19.7115H21.7914C23.1499 19.7115 24.2503 20.8092 24.2503 22.1644V22.1707V22.1723ZM24.2503 15.7267C24.2503 17.0818 23.1499 18.1795 21.7914 18.1795H12.1252V13.2659H21.7914C23.1499 13.2659 24.2503 14.3636 24.2503 15.7188V15.7251V15.7267ZM24.2503 2.83549C24.2503 4.19063 23.1499 5.28832 21.7914 5.28832H2.45892C1.10042 5.28832 0 4.19063 0 2.83549V2.82759C0 1.47245 1.10042 0.374756 2.45892 0.374756H21.7914C23.1499 0.374756 24.2503 1.47245 24.2503 2.82759V2.83391V2.83549Z" fill="#4F525E"/>
<path d="M49.6746 13.1506C48.3009 12.0524 46.5968 11.7237 45.1143 11.5039C45.0042 11.5039 44.8953 11.4501 44.784 11.4501C44.2335 11.3964 43.7393 11.2852 43.1913 11.1752C41.5913 10.9798 40.527 10.0795 41.2121 8.37659C41.6696 7.40176 43.4512 7.34625 44.5785 7.34625H48.6044C49.0436 7.34625 49.622 7.22463 50.0611 6.8948C50.7767 6.29133 50.8844 5.19312 50.2801 4.48094C50.17 4.37099 50.0611 4.26227 49.9498 4.20608C49.5107 3.93122 49.0703 3.93122 48.6299 3.93122H44.9479C44.1246 3.93122 43.2439 3.93122 42.4206 4.04116C41.2121 4.20608 40.2775 4.59088 39.5081 5.19312C38.6848 5.79659 38.1343 6.67613 37.8041 7.66318C37.5288 8.65022 37.4738 9.69346 37.694 10.6829C37.8591 11.5051 38.2444 12.2735 38.8475 12.8781C39.3417 13.3717 40.0561 13.7565 41.0457 14.0851C41.9252 14.3599 42.8035 14.5236 43.6843 14.6348C43.8494 14.6348 44.0145 14.6885 44.1785 14.6885C45.2782 14.7985 46.4329 14.9072 47.2562 15.6218C47.5314 15.8405 47.7504 16.1716 47.8067 16.5551C47.8605 16.9937 47.8605 17.4335 47.6966 17.817C47.5865 18.1469 47.4213 18.3667 47.1461 18.5854C46.8158 18.8041 46.4868 18.9152 46.1014 19.024C45.2782 19.2426 44.3436 19.2426 43.4629 19.2426H39.672C39.1778 19.2426 38.6836 19.4613 38.4084 19.9011C38.0781 20.3396 37.9692 20.8881 38.1331 21.4378C38.2983 21.9314 38.6273 22.3161 39.1215 22.536C39.3405 22.5898 39.5607 22.646 39.8371 22.646H44.2873C46.1014 22.646 48.4085 22.4273 49.8923 20.8344C50.5516 20.1197 50.992 19.1877 51.1009 18.1994C51.266 17.1012 51.211 16.1141 50.9358 15.2358C50.7718 14.3599 50.3315 13.6465 49.6721 13.1518L49.6746 13.1506ZM60.5555 7.33457C60.9946 7.33457 61.435 7.16965 61.709 6.84105C62.0393 6.51122 62.2032 6.07267 62.1481 5.63412C62.1481 5.19557 61.983 4.75579 61.654 4.42719C61.3237 4.15233 60.8845 3.98864 60.4454 3.98864H56.8735V2.17579C56.8735 1.73724 56.7083 1.29747 56.3793 0.968864C56.049 0.639035 55.6637 0.475342 55.1707 0.475342C54.7315 0.475342 54.2912 0.640256 53.9621 1.02506C53.6869 1.35489 53.5229 1.79344 53.5229 2.23199V16.2803C53.5229 18.2544 53.9621 19.8473 54.7866 20.8906C55.6661 22.0425 57.1487 22.5922 59.183 22.5922H60.3915C60.8307 22.5922 61.2711 22.4273 61.6001 22.0987C61.9304 21.7689 62.0943 21.3303 62.0943 20.8918C62.0943 20.4532 61.9292 20.0135 61.6552 19.6848C61.3249 19.355 60.8857 19.1351 60.4466 19.1351H59.238C58.3034 19.1351 57.6992 18.9165 57.4239 18.5317C57.0936 18.0381 56.8735 17.2698 56.8735 16.2265V7.33213H60.5518L60.5555 7.33457ZM75.8327 5.68787C75.3936 5.19435 74.7881 4.75457 74.1838 4.48094C73.5245 4.20608 72.8101 4.04238 72.0406 4.04238H66.1604C65.7213 4.04238 65.2809 4.2073 65.0069 4.53591C64.6766 4.86574 64.5127 5.30429 64.5678 5.74284C64.5678 6.72988 65.2271 7.38954 66.2718 7.38954H72.0419C72.6462 7.38954 73.0865 7.60821 73.4156 8.04798C73.7997 8.5415 73.9661 9.14619 73.9661 9.91457V11.5051H69.0755C68.306 11.5051 67.5904 11.67 66.9323 11.9436C65.6124 12.5471 64.5702 13.5903 64.0197 14.9072C63.4693 16.334 63.4693 17.8708 64.0197 19.2976C64.295 19.956 64.6791 20.5595 65.1733 21.053C65.6675 21.5465 66.273 21.9863 66.9311 22.26C67.5904 22.5348 68.3599 22.6985 69.0742 22.6985H75.1734C75.7239 22.6985 76.2731 22.4798 76.6584 22.095C77.0425 21.7115 77.2627 21.108 77.2627 20.5583V9.8034C77.2627 9.03502 77.1526 8.32039 76.8786 7.60821C76.656 6.78608 76.2707 6.18261 75.8327 5.68787ZM73.9073 14.7423V19.2426H69.0167C68.7415 19.2426 68.4125 19.1889 68.1372 19.0777C67.862 18.9678 67.643 18.8029 67.4216 18.5842C67.2026 18.3655 67.0375 18.1456 66.9825 17.8696C66.8724 17.5947 66.8173 17.3198 66.8173 16.9912C66.8173 16.6626 66.8711 16.3878 66.9825 16.1129C67.0926 15.8381 67.2577 15.6194 67.4216 15.3983C67.6406 15.1796 67.8608 15.0147 68.1372 14.9048C68.4125 14.7948 68.6877 14.7398 68.9605 14.7398H73.9073V14.7423ZM81.6567 3.50786C81.2175 3.50786 80.7772 3.67277 80.4481 4.00138C80.1178 4.33121 79.9539 4.76976 79.9539 5.20831V20.8893C79.9539 21.3279 80.119 21.7677 80.3931 22.0963C80.9973 22.7547 82.0971 22.8109 82.7552 22.15L82.809 22.0963C83.1393 21.7664 83.3032 21.2741 83.3032 20.8344V5.20831C83.3032 4.71479 83.1381 4.27502 82.809 3.94641C82.4799 3.67155 82.0958 3.50664 81.6567 3.50664V3.50786ZM93.526 19.8473L88.3601 13.2629L92.9767 7.00718C93.252 6.6236 93.3608 6.18505 93.307 5.74528C93.2532 5.30673 93.0318 4.92315 92.6477 4.64707C92.3174 4.37221 91.8244 4.26349 91.4391 4.31724C90.9999 4.37099 90.6158 4.64707 90.3394 4.97568L84.9534 12.2747C84.5142 12.8781 84.5142 13.7577 85.0072 14.3599L90.9424 21.9875C91.4929 22.7022 92.5351 22.8659 93.2507 22.3174C93.2507 22.3174 93.3046 22.3174 93.3046 22.2636C93.9639 21.6589 94.074 20.6157 93.526 19.8473Z" fill="#4F525E"/>
</svg>
