<svg xmlns="http://www.w3.org/2000/svg" width="177" height="32" viewBox="0 0 177 32" fill="none"><path d="M61.1541 7.83499H64.8833L59.7405 26.6853H52.356L47.1763 7.83499H50.9055L55.1305 23.1153H56.9607L61.1488 7.83499H61.1541Z" fill="white" style="fill:white;fill-opacity:1;"></path><path d="M71.545 0.084259V3.6595H67.9688V0.084259H71.545ZM67.9688 7.68756H71.545V26.6537H67.9688V7.68756Z" fill="white" style="fill:white;fill-opacity:1;"></path><path d="M75.3903 26.6905V7.84026H79.1195V9.9675H79.1934C79.5731 9.38304 80.2536 8.87755 81.2294 8.44578C82.2052 8.01401 83.3023 7.79814 84.5207 7.79814C85.5599 7.79814 86.6043 7.89818 87.6434 8.10353C88.6825 8.30888 89.6372 8.73539 90.4969 9.39357C91.362 10.0518 92.0583 11.0048 92.591 12.2422C93.1237 13.4848 93.3927 15.154 93.3927 17.2601V26.6853H89.5844V17.5234C89.5844 16.2808 89.4842 15.2645 89.2785 14.4642C89.0728 13.6638 88.7668 13.0373 88.3449 12.5844C87.9282 12.1263 87.3955 11.8104 86.7467 11.6366C86.0979 11.4576 85.3436 11.3681 84.4839 11.3681C83.6241 11.3681 82.8065 11.4576 82.1208 11.6366C81.4351 11.8157 80.8654 12.1316 80.4065 12.5844C79.9476 13.0425 79.5995 13.6428 79.3569 14.3905C79.1142 15.1382 78.9929 16.0807 78.9929 17.2233V26.6853H75.3745L75.3903 26.6905Z" fill="white" style="fill:white;fill-opacity:1;"></path><path d="M101.7 23.1153H109.507V26.6905H98.1242V11.4102H94.9277V7.83499H98.1242V0.0789948H101.706V7.83499H108.062V11.4102H101.706V23.1153H101.7Z" fill="white" style="fill:white;fill-opacity:1;"></path><path d="M119.824 7.95083C121.475 7.95083 122.878 8.22989 124.033 8.78803C125.188 9.34617 126.117 10.1255 126.813 11.1259C127.509 12.1263 127.995 13.311 128.258 14.6801C128.522 16.0491 128.596 17.5287 128.469 19.1294H114.497C114.497 20.0192 114.634 20.7406 114.913 21.2935C115.193 21.8516 115.573 22.2834 116.058 22.5835C116.538 22.8889 117.087 23.0943 117.693 23.2101C118.3 23.3259 118.949 23.3786 119.634 23.3786C120.114 23.3786 120.61 23.3575 121.116 23.3207C121.623 23.2838 122.092 23.1943 122.525 23.0574C122.957 22.9205 123.342 22.7099 123.685 22.4308C124.028 22.1517 124.26 21.7726 124.392 21.2882H128.047C127.794 22.3044 127.404 23.1574 126.887 23.8525C126.365 24.5475 125.742 25.1109 125.02 25.5427C124.297 25.9744 123.485 26.2904 122.583 26.4905C121.681 26.6906 120.721 26.7959 119.708 26.7959C116.638 26.7959 114.397 25.9955 112.988 24.4001C111.58 22.8047 110.873 20.4615 110.873 17.3707C110.873 16.0017 111.058 14.7433 111.427 13.5901C111.796 12.437 112.345 11.4418 113.083 10.6046C113.816 9.76741 114.745 9.11449 115.863 8.64587C116.981 8.17724 118.3 7.94557 119.824 7.94557V7.95083ZM124.925 15.7805C124.898 15.4751 124.835 15.0645 124.735 14.5432C124.635 14.0219 124.413 13.5164 124.07 13.0215C123.727 12.5265 123.226 12.1053 122.567 11.7472C121.908 11.3944 121.006 11.2154 119.861 11.2154C118.822 11.2154 117.957 11.3681 117.271 11.6735C116.586 11.9789 116.032 12.358 115.615 12.8161C115.198 13.2742 114.903 13.7639 114.739 14.301C114.576 14.8328 114.491 15.3277 114.491 15.7805H124.925Z" fill="white" style="fill:white;fill-opacity:1;"></path><path d="M143.47 7.83499H147.052V26.6853H131.592V7.83499H135.168V23.1153H143.47V7.83499Z" fill="white" style="fill:white;fill-opacity:1;"></path><path d="M176.136 7.83499V26.6853H172.555V11.405H165.281V26.6853H161.7V11.405H154.426V26.6853H150.85V7.83499H176.131H176.136Z" fill="white" style="fill:white;fill-opacity:1;"></path><path d="M34.7866 31.7401H25.9041V8.86703H22.9819V0H34.7866V31.7401Z" fill="url(#paint0_linear_84_3001)" style=""></path><path d="M34.8233 31.9455H9.76867V9.04078H0V0.173767H18.6512V23.0785H34.8233V31.9455Z" fill="url(#paint1_linear_84_3001)" style=""></path><defs><linearGradient id="paint0_linear_84_3001" x1="28.8843" y1="2.4537" x2="28.8843" y2="30.35" gradientUnits="userSpaceOnUse"><stop stop-color="#FFAE00" style="stop-color:#FFAE00;stop-color:color(display-p3 1.0000 0.6824 0.0000);stop-opacity:1;"></stop><stop offset="0.46" stop-color="#3CAE66" style="stop-color:#3CAE66;stop-color:color(display-p3 0.2353 0.6824 0.4000);stop-opacity:1;"></stop><stop offset="1" stop-color="#009086" style="stop-color:#009086;stop-color:color(display-p3 0.0000 0.5647 0.5255);stop-opacity:1;"></stop></linearGradient><linearGradient id="paint1_linear_84_3001" x1="0" y1="16.0596" x2="34.8233" y2="16.0596" gradientUnits="userSpaceOnUse"><stop stop-color="#3CAE66" style="stop-color:#3CAE66;stop-color:color(display-p3 0.2353 0.6824 0.4000);stop-opacity:1;"></stop><stop offset="1" stop-color="#009086" style="stop-color:#009086;stop-color:color(display-p3 0.0000 0.5647 0.5255);stop-opacity:1;"></stop></linearGradient></defs></svg>