<svg fill="none" xmlns="http://www.w3.org/2000/svg" viewBox="0 0 129 50">
    <path d="M28.35 45.94v-8.72H30v3.51h3.8v-3.51h1.65v8.72H33.8v-3.87H30v3.87h-1.65Z" fill="#FFB52E"/>
    <path fill-rule="evenodd" clip-rule="evenodd" d="M39.3 37.63c.62-.37 1.4-.56 2.36-.56s1.73.2 2.33.56c.61.36 1.06.88 1.35 1.55.3.67.45 1.46.45 2.38 0 .68-.08 1.3-.25 1.86a3.87 3.87 0 0 1-.76 1.41c-.33.4-.76.7-1.28.91-.52.21-1.13.32-1.85.32-.72 0-1.34-.1-1.86-.32a3.34 3.34 0 0 1-1.28-.9c-.34-.4-.59-.88-.76-1.43a6.42 6.42 0 0 1-.25-1.86c0-.91.15-1.7.44-2.37.3-.67.75-1.19 1.37-1.55Zm.97 1.17c.37-.26.84-.39 1.39-.39.83 0 1.46.28 1.84.87.37.56.55 1.33.55 2.28 0 .64-.08 1.2-.24 1.66-.16.47-.42.84-.78 1.1-.36.27-.83.39-1.38.39a2.3 2.3 0 0 1-1.38-.38 2.25 2.25 0 0 1-.78-1.1 5.14 5.14 0 0 1-.24-1.67c0-.64.08-1.19.24-1.66.16-.47.43-.84.78-1.1Z" fill="#FFB52E"/>
    <path d="m49.23 40.41-1.4-2.92v8.45h1.46v-4.1l-.04-.85V40.75l-.01-.01V40.52h-.01V40.41Z" fill="#FFB52E"/>
    <path d="M49.23 40.41V40.28l-.01-.01V40.13l-.05-.86v-.13h.25l3.9 6.79h2.22v-8.72h-1.46V41.67h.01V42.03h.01V42.29l.01.01V42.5l.01.01V42.74h.01V42.96l.01.01v.01l.03.83v.13h-.24l-3.9-6.71h-2.2v.27l1.4 2.92ZM58 45.94v-8.72h4.9v1.3h-3.25v2.22h3.03v1.31h-3.03v2.56h3.26v1.33h-4.92ZM68.46 45.94h-1.64V42.6l-2.9-5.38h1.78l1.94 3.84 1.94-3.84h1.77l-2.9 5.32v3.4Z" fill="#FFB52E"/>
    <path fill-rule="evenodd" clip-rule="evenodd" d="M72.75 45.94v-8.72h2.66c1.19 0 2.07.16 2.65.48.57.31.86.85.86 1.66 0 .33-.05.62-.16.88a1.42 1.42 0 0 1-1.12.94l-.1.02v.26l.1.02c.28.06.54.16.77.3.22.14.4.34.53.6.14.27.2.62.2 1.08 0 .52-.12.96-.37 1.33a2.4 2.4 0 0 1-1.09.85c-.47.2-1.04.3-1.7.3h-3.23Zm2.77-7.41c.55 0 .98.07 1.26.24.3.17.44.46.44.84 0 .37-.12.67-.37.87-.25.2-.67.29-1.22.29H74.4v-2.24h1.12Zm.18 3.5c.41 0 .75.05 1 .15.25.1.44.25.55.44.12.2.17.4.17.65 0 .4-.12.73-.38.98s-.7.36-1.28.36H74.4v-2.58h1.3ZM80.04 45.94l3.08-8.76h2.15l3.1 8.76h-1.79l-.65-2.14h-3.45l-.65 2.14h-1.79Zm3.88-6.9.17-.62h.24a16 16 0 0 0 .36 1.25l.16.54.7 2.24h-2.67l.7-2.24a72.76 72.76 0 0 0 .34-1.17ZM89.73 45.94v-8.72h2.7c.92 0 1.72.16 2.39.49.67.32 1.18.8 1.55 1.42.37.63.56 1.41.56 2.36 0 1-.2 1.82-.57 2.47a3.54 3.54 0 0 1-1.62 1.48c-.71.33-1.57.5-2.6.5h-2.4Zm2.8-7.41c.56 0 1.05.1 1.45.32.4.22.71.55.91 1 .2.45.3 1.02.3 1.69 0 1-.22 1.76-.7 2.29-.49.53-1.21.78-2.16.78h-.94v-6.08h1.13Z" fill="#FFB52E"/>
    <path d="M100.63 37.64c.68-.37 1.51-.55 2.5-.55a6.35 6.35 0 0 1 2.5.5l-.53 1.28a5.12 5.12 0 0 0-1.98-.45 2.8 2.8 0 0 0-1.5.4c-.43.27-.76.64-1 1.12a4.8 4.8 0 0 0-.1 3.26c.17.47.44.84.8 1.12.37.27.85.4 1.42.4.27 0 .5-.01.7-.04l.53-.08.1-.02v-2.1h-1.7v-1.33h3.31v4.43a9.8 9.8 0 0 1-3.07.48c-.87 0-1.6-.17-2.2-.51a3.27 3.27 0 0 1-1.37-1.5 5.81 5.81 0 0 1-.47-2.49c0-.92.18-1.71.52-2.38.36-.67.87-1.18 1.54-1.54ZM108 45.94v-8.72h4.93v1.3h-3.27v2.22h3.04v1.31h-3.04v2.56h3.27v1.33H108Z" fill="#FFB52E"/>
    <path fill-rule="evenodd" clip-rule="evenodd" d="M65.61 24.85a4.4 4.4 0 0 1 1.76-.33 6.5 6.5 0 0 1 2.47.57l-.53 1.32c-.3-.14-.6-.26-.9-.36-.36-.13-.7-.19-1.04-.19-.38 0-.73.08-1.03.23-.3.15-.55.36-.75.64-.2.28-.35.62-.45 1-.1.4-.15.83-.15 1.3 0 .65.08 1.2.24 1.67.17.47.43.83.78 1.09.36.25.81.37 1.36.37.37 0 .74-.04 1.11-.12.33-.08.68-.18 1.05-.3v1.34a6.8 6.8 0 0 1-2.34.42c-.91 0-1.65-.19-2.22-.55-.57-.37-1-.89-1.27-1.55a6.16 6.16 0 0 1-.42-2.37c0-.67.1-1.28.27-1.83a4.1 4.1 0 0 1 .79-1.42c.34-.4.76-.71 1.27-.93Zm2.87 7.19-.02-.12.02.12Zm-1.11-7.76c-.7 0-1.31.11-1.86.35-.54.23-1 .56-1.36.99-.37.42-.64.93-.83 1.5a6.1 6.1 0 0 0-.29 1.9c0 .94.15 1.76.44 2.47.3.7.75 1.26 1.37 1.66.62.4 1.4.6 2.35.6.48 0 .92-.04 1.31-.12.4-.07.8-.19 1.2-.36l.08-.03V31.4l-.17.06c-.42.15-.82.26-1.18.34-.35.08-.71.12-1.06.12-.51 0-.91-.1-1.22-.32-.3-.22-.53-.54-.69-.97a4.88 4.88 0 0 1-.22-1.58c0-.46.05-.88.14-1.24.1-.36.23-.67.41-.92.18-.25.4-.44.66-.57a2 2 0 0 1 .92-.2c.3 0 .63.05.95.17.34.12.67.25 1 .41l.12.06.7-1.78-.1-.05a6.73 6.73 0 0 0-2.67-.64Zm-26.32.09h-2.5l-3.25 9.25h2.31l.65-2.13h3.09l.65 2.13h2.31l-3.26-9.25Zm-5.4 9 3.07-8.75h2.15l3.1 8.75h-1.79l-.65-2.13h-3.45l-.65 2.13h-1.79ZM31 24.41H28.1v9.21h3.48c.69 0 1.29-.1 1.8-.32.51-.21.91-.52 1.2-.94.28-.4.41-.9.41-1.46 0-.48-.07-.88-.23-1.19-.15-.3-.36-.54-.62-.7-.16-.1-.34-.18-.52-.24.17-.07.33-.16.47-.28.22-.2.39-.43.5-.72.12-.3.18-.62.18-.97 0-.88-.33-1.51-.99-1.87a5.9 5.9 0 0 0-2.77-.52Zm-2.66 8.96v-8.72H31c1.19 0 2.07.17 2.65.5.57.3.86.84.86 1.65 0 .33-.05.62-.16.87a1.42 1.42 0 0 1-1.12.94l-.1.03v.26l.1.02c.28.06.54.16.77.3.22.14.4.34.53.6.14.26.2.62.2 1.08 0 .52-.12.96-.37 1.33a2.4 2.4 0 0 1-1.09.85c-.47.2-1.04.3-1.7.3h-3.23Zm18.88-8.96H45.1v9.21h5.78V31.8h-3.64v-7.4Zm-1.9 8.96v-8.72H47v7.4h3.63v1.32h-5.29Zm12.94-8.96h-7.02v1.83h2.43v7.38h2.15v-7.38h2.44V24.4Zm-6.77 1.58v-1.34h6.52V26h-2.43v7.38h-1.66V26H51.5Zm9.99-1.58h-2.15v9.21h2.15v-9.21Zm-1.9 8.96v-8.72h1.65v8.72h-1.66Zm-19.9-7.51-.17.62a60.58 60.58 0 0 1-.35 1.17l-.69 2.24h2.67l-.7-2.24a24.25 24.25 0 0 0-.37-1.2l-.15-.6h-.24Zm-.14 1.39a61.57 61.57 0 0 0 .26-.88 59.82 59.82 0 0 1 .24.82l.17.53.6 1.93h-2l.59-1.93.14-.47Zm-8.43-1.28H30v2.23h1.23c.55 0 .97-.08 1.22-.28s.37-.5.37-.87c0-.38-.15-.67-.44-.84a2.5 2.5 0 0 0-1.26-.24Zm-.87 1.99V26.2h.87c.54 0 .91.08 1.13.21.21.12.32.32.32.63s-.1.53-.27.68c-.18.14-.52.23-1.07.23h-.98Zm1.05 1.5H30v2.59h1.36c.58 0 1.02-.11 1.29-.37.25-.24.37-.57.37-.97 0-.24-.05-.46-.16-.65-.12-.2-.31-.34-.56-.44a2.7 2.7 0 0 0-1-.15Zm-1.05 2.34v-2.09h1.05c.4 0 .7.05.9.14.22.08.36.2.44.34.09.14.13.31.13.52 0 .34-.1.6-.3.8-.19.18-.54.3-1.1.3h-1.12Zm9.06 5.83c.6-.37 1.39-.56 2.35-.56.96 0 1.73.2 2.33.56.61.36 1.06.88 1.35 1.55.3.67.45 1.46.45 2.38 0 .68-.08 1.3-.25 1.86a3.87 3.87 0 0 1-.76 1.41c-.33.4-.76.7-1.28.91-.52.21-1.13.32-1.85.32-.72 0-1.34-.1-1.86-.32a3.34 3.34 0 0 1-1.28-.9c-.34-.4-.59-.88-.76-1.43a6.42 6.42 0 0 1-.25-1.86c0-.91.15-1.7.44-2.37.3-.67.75-1.19 1.37-1.55Zm2.35-.8c-1 0-1.82.2-2.48.59-.66.39-1.14.94-1.46 1.66a6.1 6.1 0 0 0-.46 2.47c0 .7.08 1.35.26 1.93.17.58.44 1.09.8 1.51.37.43.83.75 1.38.98.55.22 1.2.34 1.95.34.74 0 1.4-.12 1.94-.34a3.53 3.53 0 0 0 1.38-.98c.36-.42.63-.92.8-1.5.18-.58.27-1.23.27-1.93 0-.94-.16-1.77-.47-2.48a3.56 3.56 0 0 0-1.45-1.66 4.68 4.68 0 0 0-2.46-.6Zm58.97.8a6.35 6.35 0 0 1 5-.05l-.53 1.29a5.12 5.12 0 0 0-1.98-.45 2.8 2.8 0 0 0-1.5.4c-.43.27-.76.64-1 1.12a4.8 4.8 0 0 0-.1 3.26c.17.47.44.84.8 1.12.37.27.85.4 1.42.4.27 0 .5-.01.7-.04l.53-.08.1-.02v-2.1h-1.7v-1.33h3.31v4.43a9.8 9.8 0 0 1-3.07.48c-.87 0-1.6-.17-2.2-.51a3.27 3.27 0 0 1-1.37-1.5 5.81 5.81 0 0 1-.47-2.49c0-.92.18-1.71.52-2.38.36-.67.87-1.18 1.54-1.54Zm2.5-.79c-1.02 0-1.9.2-2.61.58-.72.39-1.27.94-1.64 1.64-.37.71-.56 1.55-.56 2.5 0 1.02.17 1.88.5 2.59.33.7.82 1.25 1.47 1.61.64.37 1.42.55 2.33.55.64 0 1.23-.05 1.74-.14.52-.1 1-.22 1.48-.38l.09-.03V40.9h-3.8v1.83h1.7v1.64l-.43.07c-.17.02-.4.04-.66.04-.53 0-.95-.13-1.27-.36a2.08 2.08 0 0 1-.71-1 4.56 4.56 0 0 1 .08-3.07c.22-.44.52-.78.9-1.02.39-.24.85-.36 1.38-.36a4.13 4.13 0 0 1 1.99.48l.11.06.73-1.76-.1-.05a6.99 6.99 0 0 0-2.72-.56Zm-17.68.1h-2.5l-3.25 9.24H82l.65-2.13h3.09l.65 2.13h2.31l-3.26-9.25Zm-5.4 9 3.07-8.76h2.15l3.1 8.76h-1.79l-.65-2.14h-3.45l-.65 2.14h-1.79Zm-49.8-8.97H28.1v9.21h2.15v-3.87h3.3v3.87h2.14v-9.21h-2.14v3.51h-3.3v-3.51Zm-1.9 8.97v-8.72H30v3.51h3.8v-3.51h1.65v8.72H33.8v-3.87H30v3.87h-1.65Zm21.83-8.97h-2.6v9.21h1.95v-4.34c0-.3-.02-.58-.03-.86v-.15h-.01V40.6h-.01V40.36l-.01-.01V40.12h-.01l-.02-.45 3.74 6.5h2.61v-9.21h-1.96V41.56h.01V41.91h.01V42.2l.01.01V42.44h.01V42.66h.01V42.89h.01V42.99l.02.42-3.73-6.43Zm-2.34.52v-.27h2.2l3.9 6.71h.23v-.13l-.03-.83V42.76l-.01-.01V42.53h-.01V42.31l-.01-.01V42.05h-.01V41.72h-.01V41.38h-.01V37.2h1.46v8.73h-2.22l-3.9-6.79h-.26l.01.13.04.85V40.26l.01.01V40.49l.01.01V40.73h.01V40.96l.01.01V41l.04.85v4.1h-1.45v-8.45Zm15.32-.52h-5.42v9.21h5.42v-1.81h-3.27V42.3h3.04v-1.8h-3.04v-1.73h3.27v-1.8Zm-5.17 8.97v-8.72h4.92v1.3h-3.26v2.22h3.03v1.31h-3.03v2.56h3.26v1.33h-4.92Zm7.86-8.97h-2.34l3.06 5.7v3.51h2.13V42.6l3.06-5.63h-2.33l-1.8 3.54-1.78-3.54Zm.97 5.63-2.9-5.38h1.78l1.94 3.84 1.94-3.84h1.77l-2.9 5.32v3.4h-1.63V42.6Zm8.6-5.63H72.5v9.21h3.48c.69 0 1.29-.1 1.8-.31.51-.22.91-.53 1.2-.94.28-.42.41-.9.41-1.47 0-.48-.07-.88-.23-1.19-.15-.3-.36-.53-.62-.7-.16-.1-.34-.18-.52-.24.17-.07.33-.16.47-.28.22-.2.39-.43.5-.72.12-.3.18-.62.18-.97 0-.88-.33-1.51-.99-1.87a5.9 5.9 0 0 0-2.77-.52Zm-2.67 8.97v-8.72h2.66c1.19 0 2.07.16 2.65.48.57.31.86.85.86 1.66 0 .33-.05.62-.16.88a1.42 1.42 0 0 1-1.12.94l-.1.02v.26l.1.02c.28.06.54.16.77.3.22.14.4.34.53.6.14.27.2.62.2 1.08 0 .52-.12.96-.37 1.33a2.4 2.4 0 0 1-1.09.85c-.47.2-1.04.3-1.7.3h-3.23Zm19.67-8.97H89.5v9.21h2.66c1.04 0 1.94-.17 2.7-.52a3.79 3.79 0 0 0 1.72-1.58c.4-.7.6-1.57.6-2.59 0-.98-.2-1.8-.58-2.48a3.75 3.75 0 0 0-1.66-1.53 5.67 5.67 0 0 0-2.5-.51Zm-2.69 8.97v-8.72h2.7c.92 0 1.72.16 2.39.49.67.32 1.18.8 1.55 1.42.37.63.56 1.41.56 2.36 0 1-.2 1.82-.57 2.47a3.54 3.54 0 0 1-1.62 1.48c-.71.33-1.57.5-2.6.5h-2.4Zm23.44-8.97h-5.4v9.21h5.4v-1.81h-3.26V42.3h3.03v-1.8h-3.03v-1.73h3.26v-1.8Zm-5.16 8.97v-8.72h4.92v1.3h-3.27v2.22h3.04v1.31h-3.04v2.56h3.27v1.33H108ZM41.66 38.4a2.3 2.3 0 0 0-1.39.4c-.35.25-.62.62-.78 1.1a5.1 5.1 0 0 0-.24 1.65c0 .64.08 1.2.24 1.66.17.47.43.84.78 1.1.37.27.83.39 1.38.39.55 0 1.02-.12 1.38-.38.36-.27.62-.64.78-1.1.16-.48.24-1.03.24-1.67 0-.95-.18-1.72-.55-2.28-.38-.59-1-.87-1.84-.87Zm-1.24.6c.31-.24.72-.35 1.24-.35.78 0 1.3.25 1.63.75.34.51.51 1.23.51 2.15a4.9 4.9 0 0 1-.23 1.58c-.14.43-.37.76-.68.99-.31.22-.72.33-1.24.33s-.92-.11-1.23-.33a2 2 0 0 1-.7-.99 4.9 4.9 0 0 1-.23-1.58c0-.62.08-1.14.23-1.58.15-.43.39-.75.7-.98Zm43.67-.6-.17.63a60 60 0 0 1-.35 1.17l-.69 2.24h2.67l-.7-2.24a23.65 23.65 0 0 0-.37-1.2 16 16 0 0 1-.15-.6h-.24Zm-.14 1.4a60.12 60.12 0 0 0 .26-.88 58.58 58.58 0 0 1 .24.82l.17.53.6 1.93h-2l.59-1.93.14-.47Zm-8.43-1.28H74.4v2.24h1.23c.55 0 .97-.09 1.22-.29.25-.2.37-.5.37-.87 0-.38-.15-.67-.44-.84a2.5 2.5 0 0 0-1.26-.24Zm-.87 1.99v-1.75h.87c.54 0 .91.08 1.13.21.21.12.32.32.32.63s-.1.53-.27.68c-.18.14-.53.23-1.07.23h-.98Zm17.87-2H91.4v6.1h.94c.95 0 1.67-.26 2.15-.79.49-.53.72-1.3.72-2.3 0-.66-.1-1.23-.3-1.67-.21-.46-.51-.8-.92-1.01-.4-.22-.89-.32-1.46-.32Zm-.89 5.85v-5.6h.9c.53 0 .98.1 1.33.3.36.19.63.48.8.89.2.4.3.93.3 1.58 0 .96-.23 1.66-.66 2.12-.42.46-1.07.7-1.97.7h-.7Zm25.71-5.84h-.7v2.67h.74c.63 0 1.12-.1 1.42-.34.31-.24.46-.6.46-1.03 0-.46-.16-.8-.5-1.02-.32-.2-.8-.28-1.42-.28Zm-.45 2.42v-2.18h.45c.6 0 1.03.1 1.3.25.24.16.38.41.38.8 0 .39-.13.66-.37.84-.23.19-.65.29-1.27.29h-.5ZM75.7 42.03h-1.3v2.58h1.36c.58 0 1.02-.1 1.28-.36.26-.25.38-.58.38-.98a1.09 1.09 0 0 0-.72-1.09c-.25-.1-.59-.15-1-.15Zm1 .15-.05.11.05-.11Zm-2.05 2.19v-2.1h1.05c.4 0 .7.05.9.14.22.08.36.2.44.34.09.14.13.32.13.52 0 .34-.1.6-.3.8-.19.19-.54.3-1.1.3h-1.12Z" fill="#FFB52E"/>
    <path fill-rule="evenodd" clip-rule="evenodd" d="M114.99 45.94v-8.72h2.49c.8 0 1.46.1 1.96.28.52.2.89.47 1.13.84.24.37.37.85.37 1.44a2.22 2.22 0 0 1-.8 1.76c-.25.2-.52.37-.8.5l-.13.06 2.59 3.84h-1.81l-2.14-3.44h-1.2v3.44h-1.66Zm2.35-7.41c.62 0 1.1.09 1.42.28.34.21.5.56.5 1.02 0 .44-.15.79-.46 1.03-.3.23-.79.34-1.42.34h-.74v-2.67h.7Z" fill="#FFB52E"/>
    <path fill-rule="evenodd" clip-rule="evenodd" d="M119.53 37.27c-.55-.2-1.23-.3-2.05-.3h-2.74v9.21h2.15v-3.44h-.13v-.12h.13v.12h.82l-.04-.06.1-.06v.12h-.06l2.14 3.44h2.4l-2.68-3.98-.13.06-.05-.1.1-.08.08.12c.26-.13.5-.29.72-.47a2.48 2.48 0 0 0 .9-1.95c0-.62-.14-1.15-.42-1.57-.27-.42-.69-.74-1.24-.94l-.04.12.04-.12Zm-4.54-.05v8.72h1.65V42.5h1.2l2.14 3.44h1.81l-2.58-3.84.13-.06c.28-.13.55-.3.8-.5a2.22 2.22 0 0 0 .8-1.76c0-.59-.13-1.07-.37-1.44a2.18 2.18 0 0 0-1.13-.84 5.72 5.72 0 0 0-1.96-.28h-2.5Z" fill="#FFB52E"/>
    <path d="M67.37 24.52a4.4 4.4 0 0 0-1.76.33c-.5.22-.93.53-1.27.93-.35.4-.61.87-.79 1.42a5.87 5.87 0 0 0-.27 1.83c0 .9.14 1.7.42 2.37.28.66.7 1.18 1.27 1.55.57.36 1.31.55 2.22.55a5.59 5.59 0 0 0 2.34-.42v-1.34c-.37.12-.72.22-1.05.3-.37.08-.74.12-1.11.12-.55 0-1-.12-1.36-.37a2.2 2.2 0 0 1-.78-1.08 5.13 5.13 0 0 1-.24-1.67c0-.48.05-.91.15-1.3.1-.39.25-.73.45-1 .2-.29.45-.5.75-.65.3-.15.65-.23 1.03-.23.34 0 .68.06 1.04.19.3.1.6.22.9.36l.52-1.31a6.5 6.5 0 0 0-1.16-.4 5.23 5.23 0 0 0-1.3-.18ZM59.58 33.37v-8.72h1.66v8.72h-1.66ZM51.5 25.99v-1.34h6.52V26h-2.43v7.38h-1.66V26H51.5ZM45.33 33.37v-8.72H47v7.4h3.63v1.32h-5.29Z" fill="#FFB52E"/>
    <path fill-rule="evenodd" clip-rule="evenodd" d="m35.64 33.37 3.08-8.75h2.15l3.1 8.75h-1.79l-.65-2.13h-3.45l-.65 2.13h-1.79Zm3.88-6.9.17-.61h.24a15.83 15.83 0 0 0 .36 1.25l.16.54.7 2.24h-2.67l.7-2.24a71.38 71.38 0 0 0 .34-1.17ZM28.35 33.37v-8.72H31c1.19 0 2.07.17 2.65.5.57.3.86.84.86 1.65 0 .33-.05.62-.16.87a1.42 1.42 0 0 1-1.12.94l-.1.03v.26l.1.02c.28.06.54.16.77.3.22.14.4.34.53.6.14.26.2.62.2 1.08 0 .52-.12.96-.37 1.33a2.4 2.4 0 0 1-1.09.85c-.47.2-1.04.3-1.7.3h-3.23Zm2.77-7.4c.55 0 .98.07 1.26.24.3.17.44.46.44.84 0 .37-.12.66-.37.87-.25.2-.67.28-1.22.28H30v-2.23h1.12Zm.18 3.5c.41 0 .75.04 1 .15.25.1.44.24.56.44.1.2.16.4.16.65 0 .4-.12.73-.38.97-.26.26-.7.37-1.28.37H30v-2.58h1.3ZM8.36 44.58c-.07.43-.1.86-.07 1.3 0-.14-.92.1-1.06.2-.5.05-1 .1-1.5.08l-.43.01c-.31.03-.63.05-.91-.06l.15-.08.14-.08c-.23.02-.5.01-.74-.03a1.47 1.47 0 0 1-.25-.07c-.13-.05-.28-.1-.37-.09.16-.02.32-.06.46-.12-.14.06-.51-.1-.7-.17a1.96 1.96 0 0 1-.74-.42c-.44-.4-.78-.93-.99-1.49.19.11.37.21.57.3 0-.02-.02-.03-.03-.04-.14-.19-.28-.37-.3-.6.01.1.49.27.64.33l.04.01c.26.1.5.19.77.22a2.9 2.9 0 0 1-.4-.37 12.43 12.43 0 0 1 2.22.32c.36.08.76.17 1.08.09a.97.97 0 0 1-.32-.2c.48-.06.95-.14 1.4-.27.46-.13.9-.54.93-1.03.01-.11 0-.22-.01-.33l-.01-.12-.06-.53c-.08-.67-.16-1.32-.09-2a.34.34 0 0 0-.17.15l.2-.94v-.33c0-.18-.02-.38.03-.47a.71.71 0 0 1-.26.25c.23-1.25.51-2.48.8-3.72l.03-.16v-.05c.05-.23.15-.75.28-.85-.1.08-.2.13-.32.16a6.64 6.64 0 0 0 .58-1.28c.08-.29.32-1.16.47-1.2-.11.02-.22.06-.32.12l.25-.44a5.23 5.23 0 0 0 .63-1.36c.08-.23.16-.47.26-.7.05-.15.1-.3.14-.47l.09-.33c0-.03.06-.15.11-.3l.24-.62c-.07 0-.13 0-.19-.02.17-.2.32-.4.4-.65.03-.1.06-.2.06-.32l-.13.1-.12.09c.29-.78.2-1.58.13-2.39a77.4 77.4 0 0 1-.08-.64c-.04-.33-.09-.67-.09-.99l.03-.65c.02-.22.03-.43.03-.65l-.1.07-.1.08c.13-.48.23-.97.3-1.47l.02-.15c.05-.36.15-1.15.22-1.18a4 4 0 0 0-.09.02l-.09.02c.17-.28.26-.52.39-.81a.4.4 0 0 1-.21.05 30.81 30.81 0 0 0 .57-1.93c.07-.28.15-.56.2-.84l.02-.18c.01-.15.02-.3.14-.41l-.04.02c-.06.02-.16.06-.16.08a4.65 4.65 0 0 0 .23-1.15c.03-.21.05-.43.04-.63-.03-.18 0-.33.02-.5v-.05c.06-.44.11-.87.14-1.32l-.1.04c.05-.3.14-.59.23-.87l.14-.47.02-.1c.03-.15.07-.37.13-.4a.67.67 0 0 1-.26.1c.2-.5.47-1 .76-1.44.14-.2.24-.42.34-.65.12-.27.27-.53.46-.76 0-.05 0-.09-.05-.11a1.94 1.94 0 0 0 .3-.25c.14-.11.18-.28.23-.45.03-.1.05-.18.1-.26a1.88 1.88 0 0 1 .39-.46c-.1 0-.19.01-.29.03.15-.17.34-.25.53-.34l.04-.02c.27-.12.5-.3.73-.48.05-.04.1-.07.12-.12l-.26-.04.19-.08.18-.08.08-.04c.06-.03.14-.07.18-.07a24.45 24.45 0 0 1-.32-.04c.42-.3.84-.59 1.37-.61.14 0 .28-.02.41-.04.23-.02.46-.05.69-.03a.52.52 0 0 0-.14-.14l.32.02c.48.04.94.07 1.4.21.54.17 1.04.44 1.5.78l-.03-.16-.03-.16c.18.06.32.22.46.37l.03.03c.12.14.27.26.42.38.26.22.54.44.66.77.06.16.16.28.2.28.03 0 .05.07.03.16-.02.11.03.15.1.2.02.02.06.04.08.08.04.06.03.1.02.13l-.02.06v.14l.02.1c0 .02 0 .03-.02.03h-.02c-.22-.05-.43.04-.6.17a.96.96 0 0 1 .61-.01c.16.05.27.2.35.34-.05-.08-.62.03-.7.05-.25.06-.49.14-.67.3.57-.17 1.3-.35 1.87-.1.19.07.39.16.57.25.15.06.17.2.16.33v.07l-.01.06a.98.98 0 0 1-.2.55c.07.16.01.26-.06.38l-.01.03-.03.08c-.03.09-.07.2-.16.23-.08.03-.1.15-.11.26l-.02.12c-.07.19-.29.47-.47.52l.02-.17c.02-.11.04-.22.01-.32a2.9 2.9 0 0 1-.86-.03c-.08-.01-.18-.02-.26.03a.38.38 0 0 0-.07.1c-.08.12-.23.35-.42.4.04-.02.03-.22.03-.32V8.9c-.02-.12-.06-.24-.18-.28-.1-.03-.1.12-.1.23l-.01.08c-.01.18-.07.49-.14.69-.06.18-.1.37-.1.55v.03c0 .12-.01.33.08.38l.07.02c.13.03.24.03.36.01l-.07.13c-.1.16-.18.31-.25.48-.06.17-.15.26-.33.3-.26.04-.74.13-.95-.07-.22-.2-.45-.42-.66-.64-.27-.3-.5-.58-.75-.89.05.45.15.93.3 1.35a11 11 0 0 1 .27.76.2.2 0 0 1-.19-.05c.04.1.12.2.18.3l.16.22.08.1a.24.24 0 0 1-.16-.02c-.02 0-.06-.02-.07 0v.02l.01.02c.12.23.22.47.31.71l.23.62c.07.13.19.45.13.6.15-.33.36-.63.58-.9.2-.25.47-.49.8-.55l.18-.01c.16 0 .32.02.46.08.15.07.27.16.35.3-.26 0-.5.1-.73.2.23-.05.5-.02.7.1-.08.09-.18.15-.28.2l-.22.15c-.12.1-.24.25-.34.37a.8.8 0 0 1 .84 0c-.02-.01-.4.4-.46.47-.24.32-.44.7-.46 1.1a.64.64 0 0 1 .4-.29l.24-.06.24-.06c.1-.03.4-.1.44-.19v-.12l.42-.01a.12.12 0 0 1-.1-.11s.55-.22.6-.27c.3-.25.6-.8.72-1.17.12-.4.23-.83.28-1.25.05-.43.17-.8.32-.98.14-.17.4-.3.6-.28 0 .04-.02.08-.04.12a1.03 1.03 0 0 0-.1.26c0 .03 0 .05-.02.08.03-.06.1-.13.14-.17.05-.05.1-.08.16-.11.14-.06.3-.1.46-.09l-.12.34a5.7 5.7 0 0 0-.03.08c-.06.16-.1.32-.14.48l.31-.18a.6.6 0 0 1 .38-.11s-.08.3-.1.32c-.07.2-.07.43-.06.64.04-.13.1-.22.19-.31l.03-.04c.05-.06.1-.12.17-.16 0 .21.02.42.06.63a17.3 17.3 0 0 0 .12.71c.04.25.02.48 0 .72-.02.14-.04.28-.04.43 0 .45-.05.91-.14 1.35l-.1.54-.15.78a.57.57 0 0 0-.17-.27c.05.05-.08.48-.13.64l-.02.06a5 5 0 0 0-.05.2c-.03.16-.07.32-.15.48a1.03 1.03 0 0 0-.05-.12 1.3 1.3 0 0 1-.03-.08c-.09.2-.15.41-.21.62l-.1.3c-.03.1-.05.08-.07.05-.02-.04-.05-.07-.1.03-.11.19-.24.37-.38.55l-.3.42a.24.24 0 0 1-.12.12l-.03.02h-.04l-.04.07v.01c-.07.14-.1.27-.13.4a.68.68 0 0 1-.13-.3c-.1.2-.17.4-.22.6l-.05-.25a9 9 0 0 0-.05-.25c-.12.3-.33.49-.56.69-.1.07-.19.15-.27.24l-.14.14c-.24.23-.43.42-.6.72 0-.04-.05-.1-.1-.08-.04.01-.08.06-.1.11l-.02.03c-.01.04-.03.08-.07.1l-.05.03a.22.22 0 0 0-.06.03.43.43 0 0 0-.1.1c-.08.14-.18.26-.28.38-.1.12-.19.25-.27.38 0-.58-.13-1.15-.26-1.7l-.03-.11c.03.45.04.9.05 1.36l.01.82.02.31c.01.36.02.7.1 1.06-.07 0-.13-.02-.19-.03h-.05l-.01.05.05.36c.05.41.1.83.23 1.21l.08.23c.12.32.25.65.2.98l-.15-.13-.16-.13v.1l.1 1.45a5.46 5.46 0 0 1-.1 1.12c-.02.15-.01.3 0 .44v.33a.96.96 0 0 0 0 .33.25.25 0 0 0-.19-.13c.03.3 0 .56-.05.82-.03.25-.07.5-.05.76a.64.64 0 0 1-.2-.23 13 13 0 0 1-.33 2.22l-.02.11c-.09.43-.2.85-.32 1.27l-.1.33-.09.32-.05.15c-.04.15-.1.3-.1.43a.5.5 0 0 0-.22-.42v.06c-.07.36-.13.74-.22 1.09l-.09.33c-.13.49-.25.98-.42 1.45a.22.22 0 0 1-.12-.13 7.5 7.5 0 0 1-1.2 2.14c.55-.4 1.03-.96 1.25-1.6.04.13.03.25.03.38v.14c0-.13.1-.32.2-.49l.13-.24a8.45 8.45 0 0 0 .58-2.46c.1.15.17.3.22.48l.08-.4c.04-.25.09-.49.17-.72.2-.63.47-1.63.67-2.36l.08-.29c0 .24.33.69.63 1.09.2.28.4.53.45.68l-.09.01h-.07c.06 0 .18.43.19.47.1.29.2.57.28.87a5.7 5.7 0 0 0-.12-.05l-.19-.09c.04.02.07.31.09.49l.01.11a13.63 13.63 0 0 1 .23 1.82l.04.37a4.26 4.26 0 0 1-.11 1.8l-.18-.42c-.03.23-.08.42-.14.63l-.04.2c-.03.12-.05.24-.1.36a1.43 1.43 0 0 0-.04-.23l-.01-.02-.02-.03c-.05-.03-.1.04-.1.09-.1.32-.28.62-.5.86a4.3 4.3 0 0 1-1.73.97c.08-.03.21-.01.33 0l.15.02c.16 0 .31 0 .46.05.17.05.35.06.53.06l.11.01c.05 0 .11.01.14.05l-.15.12c.44.01.89.2 1.24.48.37.3.62.72.7 1.17-.1-.1-.2-.16-.33-.22.04.12.05.23.05.36a1.73 1.73 0 0 0-.58-.3c.1.11.16.26.16.42-.2-.2-.5-.24-.77-.28h-.02c.05.07.09.14.11.23-.5-.04-1.01-.13-1.51-.22l-.42-.07a46.17 46.17 0 0 1-1.96-.42l-.52-.11-.11-.02c-.13-.02-.3-.05-.37-.1.18.17.32.36.43.58.06.12.09.24.12.36.02.1.04.2.08.28-.14-.09-.27-.2-.4-.3l-.12-.09c.16.15.26.37.25.58-.22-.13-.41-.28-.6-.44.11.12.19.27.23.43a4.36 4.36 0 0 0-.9-.45c.05.02.09.1.13.17l.05.08c.09.1.16.18.21.3-.74-.2-1.5-.36-2.27-.49l-.76-.11c-.52-.08-1.03-.16-1.55-.3a2.2 2.2 0 0 1 .14.23l-.57-.15-.57-.15.04.14c-.69-.2-1.5-.34-2.22-.4-.44-.02-.55-.15-.66-.56-.1-.38-.16-.76-.19-1.16Zm13.78-12.75-.01-.02v.02Zm1.13-9.13.01-.02v.02ZM8.37 41.9l.02.07c.33-.87.46-1.58.46-2.08v-.07l.07.01a.6.6 0 0 1 .13.05 2.31 2.31 0 0 1-.02-.5v-.09l.07.02.08.04c.06.02.12.04.17.08-.01-.44-.01-.98.17-1.35.1-.22.16-.46.2-.68l.01-.03.01-.05c.03-.15.07-.32.13-.48l.02-.09.06.05c.05.03.08.07.11.1l.04.04.05.05c.01-.09.05-.21.11-.37l.02-.06.02-.06c.02-.15.02-.32.01-.48v-.16l-.01-.15c0-.09.02-.18.04-.27l.02-.08a.1.1 0 0 1 .02.05l.05.17c.02.11.05.23.1.34.03-.33.1-.64.19-.95v-.05c.03-.12.09-.23.15-.35l.07-.15a6 6 0 0 0-.04.66c0 .09.01.17.04.26.01.04.02.07.05.11l.08.1a5.39 5.39 0 0 1 1.62-2.8l.14-.16.03-.03c.33-.36.65-.7.8-1.2l.03-.14c.05-.2.11-.4.23-.56l.11-.13.02.88a4 4 0 0 0 .15-2.16 9.46 9.46 0 0 0-.35-1.1c-.12-.33-.25-.66-.33-1l-.03-.1.09.02c.08.01.18.03.27.08a60.3 60.3 0 0 0-.35-.83l-.03-.16c-.04-.15-.1-.28-.14-.41a5.73 5.73 0 0 1-.12-.36l.05.05.02.02.09.1.08.04c.03 0 .05.02.08.04l-.02-.04c-.2-.42-.44-.9-.49-1.38v-.1l-.02-.1V24c-.04-.37-.08-.79-.24-1.12a1.16 1.16 0 0 0-.06-.1l-.06-.1-.05-.1a4.25 4.25 0 0 1-.38-1.2l.01-.11.04.1.05.12c.07.18.18.36.3.53l-.06-.23a6.16 6.16 0 0 1-.16-.97v-.1c-.07-.51.04-1.02.18-1.5a.3.3 0 0 1-.08.1l-.02.02-.04.06-.05.06c-.06.1-.1.18-.13.28l-.04.12c-.05.17-.1.33-.11.51a.23.23 0 0 1-.03-.09c-.05-.3.03-.62.1-.92.09-.33.2-.66.35-.97.32-.65.76-1.01 1.27-1.02h.05c.17 0 .36 0 .54.06l-.15-.1c-.02-.03-.03-.04-.06-.05a1.48 1.48 0 0 0-.57-.11l-.22.02c-.12.03-.23.07-.34.13.02-.06.06-.1.1-.15l.05-.04.08-.07c.05-.08.09-.17.12-.26l.02-.04c.07-.22.08-.44.1-.66v-.2a14.81 14.81 0 0 1 .3-1.93c0-.06.02-.1.03-.16l.02-.16v-.05c.12-.72.23-1.48.57-2.1a.85.85 0 0 0 .06-.16c-.05.04-.1.1-.16.13l-.15.1.06-.17.18-.57c.07-.26.15-.52.24-.77l.07-.2a.52.52 0 0 1-.23.13l-.1.04.03-.11c.15-.53.37-1.01.57-1.42.1-.2.18-.43.26-.65.06-.17.12-.34.2-.52a10.22 10.22 0 0 1 .98-1.74 2.12 2.12 0 0 1 .54-.53 2.79 2.79 0 0 0-.3.57c-.1.24-.1.35-.05.62a.36.36 0 0 0-.13-.15l-.01.42c.02.53.18 1.05.46 1.43-.18-.38-.21-.82-.25-1.25a.2.2 0 0 0 .13.1c-.06-.73.13-1.37.7-1.68a.86.86 0 0 1 .16-.06c.11-.03.22 0 .33.04h.02c0-.04-.04-.08-.08-.11l-.02-.02-.06-.05a1.3 1.3 0 0 0-.07-.06l-.04-.02-.03-.03h-.01a5.74 5.74 0 0 1 .55-.07c.2 0 .38.02.54.07a5.43 5.43 0 0 0 .86.21l.16.04a2.14 2.14 0 0 0-.22-.14l-.07-.05-.08-.05a.4.4 0 0 1-.04-.03.26.26 0 0 0-.1-.06l.23.04c.16.04.32.08.5.1l.06.01c.07 0 .14.02.2.04.08.04.17.08.25.1a1.3 1.3 0 0 0-.18-.18l-.03-.03c-.01 0-.03-.02-.03-.04l.48.13.2.06c.3.09.59.16.9.16.15 0 .29-.03.44-.06.4-.13.48-.25.47-.32 0-.09-.1-.17-.17-.22l-.07-.05-.07-.05-.07-.04-.07-.05a.85.85 0 0 1-.13-.16c.08 0 .16.02.25.04l.08.02c.11.03.21.05.3.1l.03.01-.34-.32a2.94 2.94 0 0 1-.38-.4l-.02-.01.03.24-.11-.1a5.55 5.55 0 0 0-2.1-.97l-.1-.02-.08-.03-.2-.05-.2-.06.12.15-.2-.06c-.18-.06-.4-.09-.64-.09a5.79 5.79 0 0 0-1.6.3l.21.03.21.03a1.5 1.5 0 0 0-.63.24 2 2 0 0 1-.22.13l.09.03-.05.07c-.14.18-.34.32-.52.44l-.17.1c-.13.1-.3.13-.45.16.1.02.21.02.31.02-.02 0-.04.02-.06.04l-.04.02-.05.03-.06.03a1.77 1.77 0 0 0-.71.81 7.56 7.56 0 0 1-.1.2l-.01.03c-.04.09-.08.17-.13.23-.06.06-.13.13-.2.17l.07.05v.02c.02 0 .01 0 .01.01v.01a2.6 2.6 0 0 1-.23.4l-.04.07-.16.24-.15.25a21.1 21.1 0 0 0-.87 1.49l.19-.06-.03.11a23.37 23.37 0 0 1-.37 1.33 2.2 2.2 0 0 1-.08.2l-.09.2.14-.1c-.02.02-.03.1-.03.17v.08a3.8 3.8 0 0 0-.06.6v.1c0 .16 0 .34-.04.5-.06.25-.07.51-.08.76v.14l-.01.25c-.02.31-.1.6-.19.9l-.02.1.16-.07-.03.1c-.24 1.1-.52 2.2-.81 3.27l.05-.01a.26.26 0 0 0 .07-.05l.15-.15c-.06.33-.16.65-.35.95a4.27 4.27 0 0 0 .25-.22l-.03.07v.04l-.03.06-.01.06-.08.26-.06.24v.1l-.01.11-.05.24-.01.05a17.07 17.07 0 0 1-.33 1.27l-.1.3c.1-.1.18-.2.25-.33v.07l-.02.07-.02.08-.02.08-.01.1-.02.2v.08l-.05.5a9.8 9.8 0 0 0 .11 2.77c.03.21.06.43.07.64.01.2.01.4-.05.6a.34.34 0 0 0 .1-.15.42.42 0 0 1 .07-.12c.03.46 0 .91-.14 1.35l.22-.15-.14.44-.06.19c-.18.57-.36 1.1-.6 1.66-.31.67-.63 1.35-.97 2l.26-.08-.03.1c-.26.8-.58 1.6-.95 2.35a.35.35 0 0 0 .18-.08l.07-.05.06-.04a.28.28 0 0 0-.05.08l-.03.05-.04.08c0 .03-.02.06-.03.08-.04.07-.08.15-.1.23l-.08.25-.08.25a1.21 1.21 0 0 0-.06.17c-.1.29-.2.6-.28.9l-.04.18-.04.12c-.08.3-.14.62-.19.93l-.07.37-.06.32c-.04.17-.1.33-.15.48l-.06.16c-.01.02-.03.06-.01.08.1-.08.19-.18.27-.27l-.03.08-.01.03-.02.08-.03.07c0 .03-.02.05-.03.07a.77.77 0 0 0-.04.15c-.03.17-.03.35-.03.5l-.01.22v.01c-.03.2-.05.42-.12.64l.1-.09v.56a28.08 28.08 0 0 0 .08 2.08l.03.33.01.15.01.03.01.08Zm.09-5.01Zm1.1-4.46Zm3.33-22.5h.01Zm.32 15.46Zm7.84-18.6c-.17-.03-.32-.15-.49-.28-.18-.14-.38-.3-.65-.37 0 0 .3.02.71.09l.26.04c.35.06.73.13 1.01.07-.15.05-.26.15-.36.24-.14.12-.27.23-.48.2Zm3.26 1.52a2.07 2.07 0 0 0 .27.01v.05a.3.3 0 0 1 0 .1c0 .04-.02.15-.06.2-.01-.08-.06-.16-.11-.19h-.23l-.35-.01c-.08 0-.16-.01-.23-.03a1.36 1.36 0 0 0-.23-.02c-.08 0-.18 0-.26.05l-.1.1-.1.1a.84.84 0 0 1-.05-.08.48.48 0 0 0-.1-.12c-.15-.1-.34-.12-.52-.14h-.14a6.16 6.16 0 0 1-.24-.05c-.16-.03-.32-.06-.47-.07l.6.02c.44.01.88.03 1.32.02l1 .06Zm-2.97-.1h.05-.05Zm-.18 38.32.08.01.74.09a1.49 1.49 0 0 1-.07-.12 1.43 1.43 0 0 0-.07-.12l.8.15a1.22 1.22 0 0 0-.32-.36c.29.08.58.15.88.21a1.66 1.66 0 0 0-.19-.32c.12.03.23.08.34.13l-.03-.05a.7.7 0 0 0-.18-.25.55.55 0 0 0-.34-.12c-.3-.02-.59.06-.85.2-.1.06-.2.1-.28.18-.04.03-.06.08-.09.12-.02.04-.04.08-.07.1a.13.13 0 0 1-.07.02c-.08.01-.15.04-.22.07l-.14.06h.08Zm-3.61-.05-.01-.01a1.5 1.5 0 0 0-.13-.18v-.01c-.07-.09-.14-.19-.23-.22a.61.61 0 0 0-.33-.04c-.29.04-.56.16-.8.34-.05.02-.12.06-.16.1a.46.46 0 0 0-.06.05l-.08.07h-.06c-.1 0-.22.02-.31.06-.07.03-.14.08-.2.13l-.07.05.63.13.64.12c-.1-.15-.19-.28-.27-.43.27 0 .54.06.79.17a1.7 1.7 0 0 0-.18-.33 2.67 2.67 0 0 1 .59.29l.08.05c0-.07-.04-.13-.06-.19a1.16 1.16 0 0 1-.05-.11l-.1-.2c.12.07.25.15.38.18l-.01-.02Zm4.81-35.74-.01.02a.51.51 0 0 1-.07.1l-.03.03-.06.07c-.1.12-.2.23-.37.24h-.11l-.34-.01c-.1-.02-.14-.07-.2-.13-.02-.04-.04-.07-.08-.1a4.31 4.31 0 0 1-.94-1.25.86.86 0 0 1-.1-.63c.03-.12.09-.24.15-.35l.1-.17c.05-.06.1-.13.12-.2-.02.08-.06.16-.1.24 0 .03-.02.05-.03.08l-.02.04c-.05.15-.12.3-.1.46 0 .13.07.25.14.37 0 .02.02.03.03.05l.2.33.24.39c.06.09.13.16.2.24l.11.13.02.02.05.05c.1.06.31-.05.4-.11a1.31 1.31 0 0 1-.19.4v.02l.12-.04.16-.05h.06c.06 0 .13-.01.14-.09.03-.08.02-.19.01-.29v-.2c.04-.42.12-.82.22-1.23 0 .2 0 .4-.02.6-.01.25-.03.5 0 .74.02.22.13.22.31.21v.02Zm2.28-3.59c-.03-.03-.1-.03-.16-.03-.2-.02-.34.07-.43.23H24.34l.03-.01.08-.05.03-.03.13-.07.01-.01.02-.03Zm-2.5 12.3.02.3-.08-.1-.04-.04c0-.02-.02-.03-.03-.05.05.07 0 .27-.03.41l-.03.13-.01.36-.02.36-.05-.13-.05-.13a.59.59 0 0 0-.06-.1.3.3 0 0 1-.03-.05 6.2 6.2 0 0 1-.1.79v.1c-.2 1.02-.8 1.88-1.44 2.65-.58.72-1.18 1.4-1.88 2.02a.44.44 0 0 0 .03-.28 3.8 3.8 0 0 1-1.5.7c-.07.03-.17.04-.23-.01a1 1 0 0 0 .3-.3c-.28.1-.62.22-.9.1l.12-.1.25-.2c-.28.09-.63-.2-.92-.43-.11-.1-.22-.18-.3-.23.16.1.36.16.55.22a4.77 4.77 0 0 1 .4.15c.27.11.43.18.74.04l-.15.3c.18-.04.37-.1.55-.13l-.02.1c0 .04.04.07.07.07h.04l.01-.01c.22-.11.45-.22.66-.36.13-.08.23-.19.34-.3l.16-.16c.01-.02.03-.03.04-.02l.02.03.11.25c-.02-.08.6-.76.68-.84.13-.15.23-.32.34-.48.1-.17.2-.34.33-.48a6.4 6.4 0 0 0 1.59-3.47c.01-.11.03-.21.06-.31a.7.7 0 0 1 .05.08l.05.08.03-.19c.03-.23.09-.58.04-.7l.1.17a1.4 1.4 0 0 1-.01-.47c0-.11.02-.22.01-.3 0-.52 0-1.05.1-1.55 0 .2.02.42.04.64.02.23.05.47.04.7v1.17Zm-.3-.37.01.02v-.02Zm-2.58-1.56c.18-.19.34-.39.49-.6a8.83 8.83 0 0 0 .92-1.89l-.02.05c-.1.24-.27.47-.45.7l-.26.36-.27.45-.28.45c-.08.1-.48.69-.63.67l.15.03.16.02c-.07 0-.36.35-.48.5l-.02.03-.02.03c-.1.1-.1.1-.13.1-.01 0-.03 0-.12.1-.16.15-.29.22-.41.29-.14.08-.28.15-.45.36-.1.12-.3.25-.44.3-.34.08-.66.21-.94.4.13-.06.27-.08.42-.1.12-.01.24-.02.35-.06-.18.06-.26.27-.33.45l-.07.16c.07-.02.13-.07.2-.13l.03-.03a8.8 8.8 0 0 1 .99-.81c.18-.15.29-.22.4-.3.12-.08.23-.16.41-.32.47-.4.63-.65.94-1.13l.09-.13a.29.29 0 0 0-.23.05Zm-6.13 26.72.07-.01c.4-.05.75-.14 1.14-.29.41-.14.84-.3 1.18-.59 0 .1-.02.23-.06.32.06-.13.18-.2.3-.27l.11-.08c.18-.14.35-.29.47-.47.06-.08.1-.17.14-.25.05-.1.1-.21.17-.3.06.08.09.2.06.28.22-.54.4-1.12.5-1.7.02-.13.02-.24.02-.36l.01-.3c.01-.1.09-.77 0-.82.08.04.16.09.22.15a1.48 1.48 0 0 0-.15-.39l-.02-.04-.07-.2c-.05-.15-.1-.32-.15-.34a2.5 2.5 0 0 1 .25.12 9.5 9.5 0 0 0-.22-.6l-.17-.45a5.51 5.51 0 0 0-.49-1.06l-.2-.32c-.22-.37-.45-.75-.71-1.07a.38.38 0 0 1 .26.02l-.32-.3a6.98 6.98 0 0 1-.39-.37 3.14 3.14 0 0 0-.74-.55l.45.23.26.14c.3.16.54.37.78.58l.45.36c-.01.04-.06.04-.1.04-.05 0-.1 0-.1.04l.01.03v.02l.38.69c.2.35.4.7.57 1.1.23.5.41 1.02.6 1.54l.13.36-.22-.07c.19.43.26.8.22 1.26l-.11-.22a7.64 7.64 0 0 1-.12-.22c.06.13-.01.42-.06.6v.04l-.01.02v.02c-.03.12-.05.25-.06.37-.02.13-.03.26-.06.38-.08.4-.2.8-.34 1.18-.08.17-.15.35-.24.52l-.08.15c-.09.13-.19.3-.19.38 0-.15 0-.3-.02-.43.02.13-.17.26-.3.35l-.07.05c-.18.14-.36.25-.55.36l-.12.06c-.12.06-.29.14-.3.2l.02-.16.03-.16c-.23.26-.54.33-.87.4l-.16.04c-.22.06-.5.13-.68.1l.23.06a3.8 3.8 0 0 0 .8.13c.17 0 .34.02.51.07l.03.02-.03.03-.1.03c.1-.03.33.04.48.1.05 0 .09.02.12.03l.06.02a3.43 3.43 0 0 1 1.48.86c-.14-.13-.39-.23-.6-.32l-.16-.06a5.83 5.83 0 0 0-1.11-.38l-.4-.11-.04-.01c-.12-.03-.38-.1-.46-.02.04-.05.08-.1.11-.17h-.23c-.2 0-.4-.01-.6-.05-.32-.05-.65-.1-.97-.1h-.22a2.92 2.92 0 0 0-.75 0c.5-.1 1-.18 1.5-.24Zm1.15.56Zm-.04-10.85Zm7.87-18.2-.02.02-.04.1-.1-.85-.1-.73c0-.15-.03-.3-.22-.27a.36.36 0 0 1-.1.03c.15-.24.37-.56.65-.68.1-.05.2-.08.34-.08a.7.7 0 0 1 .16.02.94.94 0 0 0-.34.2c-.18.14-.28.33-.34.54.21-.13.43-.23.68-.21l-.1.1a1.5 1.5 0 0 0-.3.38l-.1.24c0 .02 0 .05-.02.08l-.02.07a.69.69 0 0 0-.04.13c0 .03 0 .07-.02.09.19-.16.38-.26.61-.3l-.02.06-.12.2-.12.19c-.07.12-.14.25-.18.38l-.04.11-.05.11a.1.1 0 0 0-.05.05v.02Zm3.44-1.94-.06.17c0 .05.23.21.27.19.1-.06.14-.15.18-.25l.03-.06a1 1 0 0 0 .06-.17c.06-.2.14-.49.33-.65-.43 0-.7.37-.76.59l-.05.18Zm2.07-.23c0-.1-.02-.19-.03-.29a1.13 1.13 0 0 0-.07-.3c0 .02-.14.16-.16.18l-.02.02-.02.02c-.04.04-.08.08-.12.1a4.67 4.67 0 0 0-.1-.4c-.02-.17-.04-.34-.02-.5a1.05 1.05 0 0 0-.3.12.83.83 0 0 0-.13.09c-.02.01-.12.07-.12.1a96.18 96.18 0 0 0 .07-.93c-.23.12-.36.45-.43.6a.58.58 0 0 1-.04.1c-.02-.1-.02-.23-.02-.33v-.35c-.16.15-.23.46-.3.75l-.05.2c.04-.12.2-.14.33-.12.17.04.41.19.83.67.44.48.67.77.76 1.02a1.58 1.58 0 0 1-.02-.28 10.2 10.2 0 0 1-.04-.47Z" fill="#FFB52E"/>
</svg>
