<svg width="124" height="28" viewBox="0 0 124 28" fill="none" xmlns="http://www.w3.org/2000/svg">
<g clip-path="url(#clip0_31912_26496)">
<g style="mix-blend-mode:multiply">
<path d="M53.0883 3.2923H54.1581L61.7908 20.8615C62.2507 21.9229 62.7598 22.6648 63.3205 23.0873C63.7726 23.4196 64.3902 23.6283 65.1757 23.7082V24.7077H57.5972V23.7082C59.3206 23.5639 60.1811 23.2187 60.1811 22.67C60.1811 22.4896 60.0596 22.1264 59.8167 21.5777L57.8272 17.0978H48.812L47.0111 21.2531C46.7682 21.8121 46.6467 22.2372 46.6467 22.536C46.6467 23.229 47.4529 23.6206 49.0704 23.7107V24.7103H42.3291V23.7107C43.7373 23.5124 44.7166 22.7653 45.267 21.4695L53.0909 3.2923H53.0883ZM53.3312 6.16726L49.2849 15.7221H57.406L53.3312 6.16726Z" fill="black"/>
<path d="M66.5812 24.7077V23.7082C67.7 23.6644 68.4183 23.4737 68.7336 23.1414C69.0126 22.8452 69.1521 22.2965 69.1521 21.4953V6.65159C69.1521 5.86072 68.9764 5.33776 68.625 5.0853C68.3176 4.86118 67.6638 4.72979 66.6613 4.69373V3.69419C68.302 3.68646 69.7878 3.50098 71.1133 3.14032V21.4927C71.1133 22.366 71.2813 22.9456 71.6146 23.2342C71.9117 23.4944 72.5939 23.6515 73.6584 23.7056V24.7051H66.5786L66.5812 24.7077Z" fill="black"/>
<path d="M74.041 28V27.0005C75.1857 26.9824 75.9143 26.8124 76.2192 26.4878C76.5086 26.1916 76.6533 25.6325 76.6533 24.8133V12.7364C76.6533 11.9713 76.4854 11.469 76.152 11.2242C75.8368 10.9898 75.1779 10.843 74.1754 10.7786V9.77901C76.0151 9.75325 77.4827 9.56777 78.5731 9.22514V11.8013C78.9607 11.0903 79.5343 10.5106 80.2914 10.0598C81.2293 9.50336 82.25 9.22256 83.3507 9.22256C85.3713 9.22256 87.0198 9.91554 88.2911 11.3015C89.49 12.5973 90.092 14.2924 90.092 16.3894C90.092 18.9269 89.4383 20.8384 88.1283 22.1238C86.9552 23.2934 85.3041 23.8782 83.175 23.8782C81.9037 23.8782 80.7978 23.551 79.8599 22.8941C79.3457 22.5257 78.9168 22.062 78.5731 21.503V24.8082C78.5731 25.6712 78.7411 26.2431 79.0744 26.5213C79.4181 26.8098 80.2113 26.967 81.4567 26.9927V27.9923H74.041V28ZM83.0019 10.6059C81.865 10.6059 80.8444 11.1186 79.9426 12.1439C79.0124 13.1872 78.5473 14.5809 78.5473 16.3275C78.5473 17.8938 78.7411 19.1123 79.1287 19.9857C79.8599 21.6679 81.1958 22.5103 83.1337 22.5103C84.9475 22.5103 86.2679 21.7142 87.0999 20.1222C87.6218 19.1149 87.8854 17.8603 87.8854 16.3585C87.8854 14.9364 87.5598 13.7282 86.9113 12.7287C86.2627 11.7472 85.3687 11.1006 84.2318 10.7863C83.8261 10.6704 83.4153 10.6111 82.9993 10.6111L83.0019 10.6059Z" fill="black"/>
<path d="M94.0609 17.0978V17.3142C94.0609 18.762 94.3503 20.014 94.9265 21.0651C95.8929 22.8271 97.376 23.7108 99.3785 23.7108C101.598 23.7108 103.448 22.5773 104.929 20.3103L105.807 21.1861C104.236 23.904 102.035 25.2616 99.2028 25.2616C96.712 25.2616 94.787 24.3316 93.4227 22.4691C92.4021 21.0754 91.8931 19.3519 91.8931 17.3013C91.8931 15.2507 92.4615 13.3882 93.5984 11.9043C94.9782 10.1242 96.7973 9.23288 99.053 9.23288C100.632 9.23288 102.009 9.67855 103.182 10.5699C104.5 11.5591 105.358 12.9142 105.753 14.6325C105.898 15.2533 105.97 15.8922 105.97 16.5491V17.103H94.0583L94.0609 17.0978ZM103.645 15.7763C103.572 14.246 103.234 13.0868 102.629 12.2959C101.735 11.1186 100.554 10.5287 99.084 10.5287C97.7042 10.5287 96.5259 11.1186 95.5518 12.2959C94.7767 13.231 94.2986 14.3929 94.1178 15.7763H103.647H103.645Z" fill="black"/>
<path d="M106.771 24.7077V23.7082C107.81 23.6644 108.489 23.4866 108.815 23.1826C109.148 22.8761 109.316 22.3145 109.316 21.4953V12.7364C109.316 11.9353 109.14 11.4097 108.789 11.1573C108.528 10.9769 107.882 10.8507 106.854 10.7786V9.77903C108.461 9.77903 109.926 9.59355 111.251 9.22516V11.8554C111.846 11.0285 112.618 10.3664 113.567 9.87177C114.406 9.43898 115.249 9.22516 116.099 9.22516C117.822 9.22516 119.189 9.84601 120.199 11.0877C121.021 12.1053 121.432 13.5118 121.432 15.3126V21.4927C121.432 22.3557 121.602 22.9328 121.946 23.2213C122.261 23.4918 122.949 23.6541 124.003 23.7082V24.7077H117.14V23.7082C118.078 23.6541 118.714 23.4789 119.05 23.1826C119.347 22.9225 119.497 22.3583 119.497 21.4953V15.2353C119.497 13.8957 119.163 12.8189 118.494 12.01C117.853 11.2268 116.995 10.8352 115.923 10.8352C114.225 10.8352 112.67 11.8657 111.254 13.9266V21.4979C111.254 22.3428 111.412 22.907 111.727 23.1852C112.042 23.4738 112.66 23.6489 113.582 23.7108V24.7103H106.774L106.771 24.7077Z" fill="black"/>
<path d="M21.9267 0H12.2346L16.6815 10.2092H7.75162L0 28H9.23734L16.8339 10.5596L21.0534 20.2458L17.6711 28H27.3632L30.7481 20.2458L21.9267 0Z" fill="black"/>
</g>
</g>
<defs>
<clipPath id="clip0_31912_26496">
<rect width="124" height="28" fill="white"/>
</clipPath>
</defs>
</svg>
